<svg xmlns="http://www.w3.org/2000/svg" xmlns:xlink="http://www.w3.org/1999/xlink" version="1.1" width="888.2" height="612.1" viewBox="14.9 82.9 888.2 612.1"><g><g transform="translate(15,115)"><g><g>
<path d="M584,0H0v410h584V0L584,0z" stroke="#000000" stroke-dasharray="5,5" fill="#FFFFFF"/>
<rect x="25.5" y="18.7" width="533" height="372.6" fill="none"/>
<circle fill="none" cx="292" cy="0" r="0.1"/>
<circle fill="none" cx="436.7" cy="0" r="0.1"/>
<circle fill="none" cx="584" cy="103.4" r="0.1"/>
<circle fill="none" cx="584" cy="205" r="0.1"/>
<circle fill="none" cx="584" cy="306.6" r="0.1"/>
<circle fill="none" cx="436.7" cy="410" r="0.1"/>
<circle fill="none" cx="292" cy="410" r="0.1"/>
<circle fill="none" cx="147.3" cy="410" r="0.1"/>
<circle fill="none" cx="0" cy="306.6" r="0.1"/>
<circle fill="none" cx="0" cy="205" r="0.1"/>
<circle fill="none" cx="0" cy="103.4" r="0.1"/>
<circle fill="none" cx="147.3" cy="0" r="0.1"/>
</g></g><rect stroke="none" stroke-width="0" fill="#FFFFFF" x="0" y="0" width="0" height="0" transform="translate(583.9,204.9)"/><path stroke="#000000" fill="none" d=""/><text font-family="OpenSansCondensedLight" font-size="14pt" fill="black" transform="translate(583.9,204.9)"/><rect stroke-width="0" fill="none" width="533" height="372.6" transform="translate(25.5,18.7)"/><text font-family="OpenSansCondensedLight" font-size="14pt" fill="black" transform="translate(25.5,18.7)" text-anchor="middle"><tspan x="266.5" y="16.8">NETWORK 106</tspan></text><path stroke="#000000" fill="none" transform="translate(25.5,18.7)" d="M 301.5 19 329.4 19"/></g><g transform="translate(33,171)"><g><g>
<path d="M252,0H0v318h252V0L252,0z" stroke="#000000" stroke-dasharray="none" fill="#FFFFFF"/>
<rect x="11" y="14.5" width="230" height="289" fill="none"/>
<circle fill="none" cx="126" cy="0" r="0.1"/>
<circle fill="none" cx="188.4" cy="0" r="0.1"/>
<circle fill="none" cx="252" cy="80.2" r="0.1"/>
<circle fill="none" cx="252" cy="159" r="0.1"/>
<circle fill="none" cx="252" cy="237.8" r="0.1"/>
<circle fill="none" cx="188.4" cy="318" r="0.1"/>
<circle fill="none" cx="126" cy="318" r="0.1"/>
<circle fill="none" cx="63.6" cy="318" r="0.1"/>
<circle fill="none" cx="0" cy="237.8" r="0.1"/>
<circle fill="none" cx="0" cy="159" r="0.1"/>
<circle fill="none" cx="0" cy="80.2" r="0.1"/>
<circle fill="none" cx="63.6" cy="0" r="0.1"/>
</g></g><rect stroke="none" stroke-width="0" fill="#FFFFFF" x="0" y="0" width="0" height="0" transform="translate(251.9,158.9)"/><path stroke="#000000" fill="none" d=""/><text font-family="OpenSansCondensedLight" font-size="14pt" fill="black" transform="translate(251.9,158.9)"/><rect stroke-width="0" fill="none" width="230" height="289" transform="translate(11,14.5)"/><text font-family="OpenSansCondensedLight" font-size="14pt" fill="black" transform="translate(11,14.5)" text-anchor="middle"><tspan x="115" y="284.8">CLIENT FACILITY 102</tspan></text><path stroke="#000000" fill="none" transform="translate(11,14.5)" d="M 180.6 287 208.6 287"/></g><g transform="translate(367,174)"><g><g>
<path d="M207,0H0v316h207V0L207,0z" stroke="#000000" stroke-dasharray="none" fill="#FFFFFF"/>
<rect x="9.1" y="14.4" width="188.9" height="287.2" fill="none"/>
<circle fill="none" cx="103.5" cy="0" r="0.1"/>
<circle fill="none" cx="154.8" cy="0" r="0.1"/>
<circle fill="none" cx="207" cy="79.7" r="0.1"/>
<circle fill="none" cx="207" cy="158" r="0.1"/>
<circle fill="none" cx="207" cy="236.3" r="0.1"/>
<circle fill="none" cx="154.8" cy="316" r="0.1"/>
<circle fill="none" cx="103.5" cy="316" r="0.1"/>
<circle fill="none" cx="52.2" cy="316" r="0.1"/>
<circle fill="none" cx="0" cy="236.3" r="0.1"/>
<circle fill="none" cx="0" cy="158" r="0.1"/>
<circle fill="none" cx="0" cy="79.7" r="0.1"/>
<circle fill="none" cx="52.2" cy="0" r="0.1"/>
</g></g><rect stroke="none" stroke-width="0" fill="#FFFFFF" x="0" y="0" width="0" height="0" transform="translate(206.9,157.9)"/><path stroke="#000000" fill="none" d=""/><text font-family="OpenSansCondensedLight" font-size="14pt" fill="black" transform="translate(206.9,157.9)"/><rect stroke-width="0" fill="none" width="188.9" height="287.2" transform="translate(9.1,14.4)"/><text font-family="OpenSansCondensedLight" font-size="14pt" fill="black" transform="translate(9.1,14.4)" text-anchor="middle"><tspan x="94.5" y="262">GATEWAY FACILITY</tspan><tspan x="94.5" y="283">104</tspan></text><path stroke="#000000" fill="none" transform="translate(9.1,14.4)" d="M 80.5 285 108.4 285"/></g><g transform="translate(48,185)"><g><g>
<path d="M110,0H0v67h110V0L110,0z" stroke="#000000" stroke-dasharray="none" fill="#FFFFFF"/>
<rect x="4.8" y="3.1" width="100.4" height="60.9" fill="none"/>
<circle fill="none" cx="55" cy="0" r="0.1"/>
<circle fill="none" cx="82.3" cy="0" r="0.1"/>
<circle fill="none" cx="110" cy="16.9" r="0.1"/>
<circle fill="none" cx="110" cy="33.5" r="0.1"/>
<circle fill="none" cx="110" cy="50.1" r="0.1"/>
<circle fill="none" cx="82.3" cy="67" r="0.1"/>
<circle fill="none" cx="55" cy="67" r="0.1"/>
<circle fill="none" cx="27.8" cy="67" r="0.1"/>
<circle fill="none" cx="0" cy="50.1" r="0.1"/>
<circle fill="none" cx="0" cy="33.5" r="0.1"/>
<circle fill="none" cx="0" cy="16.9" r="0.1"/>
<circle fill="none" cx="27.8" cy="0" r="0.1"/>
</g></g><rect stroke="none" stroke-width="0" fill="#FFFFFF" x="0" y="0" width="0" height="0" transform="translate(109.9,33.4)"/><path stroke="#000000" fill="none" d=""/><text font-family="OpenSansCondensedLight" font-size="14pt" fill="black" transform="translate(109.9,33.4)"/><rect stroke-width="0" fill="none" width="100.4" height="60.9" transform="translate(4.8,3.1)"/><text font-family="OpenSansCondensedLight" font-size="14pt" fill="black" transform="translate(4.8,3.1)" text-anchor="middle"><tspan x="50.2" y="26.2">Security</tspan><tspan x="50.2" y="47.2">Facility 108</tspan></text><path stroke="#000000" fill="none" transform="translate(4.8,3.1)" d="M 67 49 95 49"/></g><g transform="translate(165,185)"><g><g>
<path d="M110,0H0v67h110V0L110,0z" stroke="#000000" stroke-dasharray="none" fill="#FFFFFF"/>
<rect x="4.8" y="3.1" width="100.4" height="60.9" fill="none"/>
<circle fill="none" cx="55" cy="0" r="0.1"/>
<circle fill="none" cx="82.3" cy="0" r="0.1"/>
<circle fill="none" cx="110" cy="16.9" r="0.1"/>
<circle fill="none" cx="110" cy="33.5" r="0.1"/>
<circle fill="none" cx="110" cy="50.1" r="0.1"/>
<circle fill="none" cx="82.3" cy="67" r="0.1"/>
<circle fill="none" cx="55" cy="67" r="0.1"/>
<circle fill="none" cx="27.8" cy="67" r="0.1"/>
<circle fill="none" cx="0" cy="50.1" r="0.1"/>
<circle fill="none" cx="0" cy="33.5" r="0.1"/>
<circle fill="none" cx="0" cy="16.9" r="0.1"/>
<circle fill="none" cx="27.8" cy="0" r="0.1"/>
</g></g><rect stroke="none" stroke-width="0" fill="#FFFFFF" x="0" y="0" width="0" height="0" transform="translate(109.9,33.4)"/><path stroke="#000000" fill="none" d=""/><text font-family="OpenSansCondensedLight" font-size="14pt" fill="black" transform="translate(109.9,33.4)"/><rect stroke-width="0" fill="none" width="100.4" height="60.9" transform="translate(4.8,3.1)"/><text font-family="OpenSansCondensedLight" font-size="14pt" fill="black" transform="translate(4.8,3.1)" text-anchor="middle"><tspan x="50.2" y="15.7">Network</tspan><tspan x="50.2" y="36.7">Control</tspan><tspan x="50.2" y="57.7">Facility 110</tspan></text><path stroke="#000000" fill="none" transform="translate(4.8,3.1)" d="M 67.4 60 94.7 60"/></g><g transform="translate(50,271)"><g><g>
<path d="M110,0H0v68h110V0L110,0z" stroke="#000000" stroke-dasharray="none" fill="#FFFFFF"/>
<rect x="4.8" y="3.1" width="100.4" height="61.8" fill="none"/>
<circle fill="none" cx="55" cy="0" r="0.1"/>
<circle fill="none" cx="82.3" cy="0" r="0.1"/>
<circle fill="none" cx="110" cy="17.1" r="0.1"/>
<circle fill="none" cx="110" cy="34" r="0.1"/>
<circle fill="none" cx="110" cy="50.9" r="0.1"/>
<circle fill="none" cx="82.3" cy="68" r="0.1"/>
<circle fill="none" cx="55" cy="68" r="0.1"/>
<circle fill="none" cx="27.8" cy="68" r="0.1"/>
<circle fill="none" cx="0" cy="50.9" r="0.1"/>
<circle fill="none" cx="0" cy="34" r="0.1"/>
<circle fill="none" cx="0" cy="17.1" r="0.1"/>
<circle fill="none" cx="27.8" cy="0" r="0.1"/>
</g></g><rect stroke="none" stroke-width="0" fill="#FFFFFF" x="0" y="0" width="0" height="0" transform="translate(109.9,33.9)"/><path stroke="#000000" fill="none" d=""/><text font-family="OpenSansCondensedLight" font-size="14pt" fill="black" transform="translate(109.9,33.9)"/><rect stroke-width="0" fill="none" width="100.4" height="61.8" transform="translate(4.8,3.1)"/><text font-family="OpenSansCondensedLight" font-size="14pt" fill="black" transform="translate(4.8,3.1)" text-anchor="middle"><tspan x="50.2" y="5.7">Application</tspan><tspan x="50.2" y="26.7">Auto or User</tspan><tspan x="50.2" y="47.7">Request</tspan><tspan x="50.2" y="68.7">112</tspan></text><path stroke="#000000" fill="none" transform="translate(4.8,3.1)" d="M 36.5 71 63.8 71"/></g><g transform="translate(167,271)"><g><g>
<path d="M110,0H0v68h110V0L110,0z" stroke="#000000" stroke-dasharray="none" fill="#FFFFFF"/>
<rect x="4.8" y="3.1" width="100.4" height="61.8" fill="none"/>
<circle fill="none" cx="55" cy="0" r="0.1"/>
<circle fill="none" cx="82.3" cy="0" r="0.1"/>
<circle fill="none" cx="110" cy="17.1" r="0.1"/>
<circle fill="none" cx="110" cy="34" r="0.1"/>
<circle fill="none" cx="110" cy="50.9" r="0.1"/>
<circle fill="none" cx="82.3" cy="68" r="0.1"/>
<circle fill="none" cx="55" cy="68" r="0.1"/>
<circle fill="none" cx="27.8" cy="68" r="0.1"/>
<circle fill="none" cx="0" cy="50.9" r="0.1"/>
<circle fill="none" cx="0" cy="34" r="0.1"/>
<circle fill="none" cx="0" cy="17.1" r="0.1"/>
<circle fill="none" cx="27.8" cy="0" r="0.1"/>
</g></g><rect stroke="none" stroke-width="0" fill="#FFFFFF" x="0" y="0" width="0" height="0" transform="translate(109.9,33.9)"/><path stroke="#000000" fill="none" d=""/><text font-family="OpenSansCondensedLight" font-size="14pt" fill="black" transform="translate(109.9,33.9)"/><rect stroke-width="0" fill="none" width="100.4" height="61.8" transform="translate(4.8,3.1)"/><text font-family="OpenSansCondensedLight" font-size="14pt" fill="black" transform="translate(4.8,3.1)" text-anchor="middle"><tspan x="50.2" y="37.2">IDE 114</tspan></text><path stroke="#000000" fill="none" transform="translate(4.8,3.1)" d="M 54.4 39 81.7 39"/></g><g transform="translate(725,522)"><g><g>
<g stroke="#000000" stroke-dasharray="none" fill="#FFFFFF">
    <path d="M89.8,14.8H0v60.3c0,8.1,20.1,14.8,45,14.8s45,-6.7,45,-14.8v-60.3L89.8,14.8L89.8,14.8z"/>
    <path d="M45,0C20.1,0,0,6.7,0,14.8s20.1,14.8,45,14.8s45,-6.7,45,-14.8C89.8,6.7,69.6,0,45,0L45,0z"/>
</g>
<rect x="4.8" y="32.9" width="80.2" height="42.7" fill="none"/>
<circle fill="none" cx="45" cy="0" r="0.1"/>
<circle fill="none" cx="68.6" cy="2.3" r="0.1"/>
<circle fill="none" cx="90" cy="14.8" r="0.1"/>
<circle fill="none" cx="90" cy="45" r="0.1"/>
<circle fill="none" cx="90" cy="75.1" r="0.1"/>
<circle fill="none" cx="69.8" cy="87.5" r="0.1"/>
<circle fill="none" cx="45" cy="90" r="0.1"/>
<circle fill="none" cx="18.9" cy="87.1" r="0.1"/>
<circle fill="none" cx="0" cy="75.1" r="0.1"/>
<circle fill="none" cx="0" cy="45" r="0.1"/>
<circle fill="none" cx="0" cy="14.8" r="0.1"/>
<circle fill="none" cx="21.2" cy="2.3" r="0.1"/>
</g></g><rect stroke="none" stroke-width="0" fill="#FFFFFF" x="0" y="0" width="0" height="0" transform="translate(89.9,44.9)"/><path stroke="#000000" fill="none" d=""/><text font-family="OpenSansCondensedLight" font-size="14pt" fill="black" transform="translate(89.9,44.9)"/><rect stroke-width="0" fill="none" width="80.2" height="42.7" transform="translate(4.8,32.9)"/><text font-family="OpenSansCondensedLight" font-size="14pt" fill="black" transform="translate(4.8,32.9)" text-anchor="middle"><tspan x="40.1" y="27.6"> 116</tspan></text><path stroke="#000000" fill="none" transform="translate(4.8,32.9)" d="M 26.5 30 53.8 30"/></g><g><path stroke="black" stroke-dasharray="none" d="M 574 410 725 537" fill="none"/><path fill="black" stroke="black" d="" transform="translate(574,410) scale(1,1) rotate(40.1)"/><path fill="black" stroke="black" d="" transform="translate(725,537) scale(1,1) rotate(-139.9)"/><g><g label-idx="0" cursor="move" transform="translate(649.5, 473.5)"><rect fill="white" rx="3" ry="3" x="0" y="0" width="0" height="0"/><text text-anchor="middle" font-size="14pt" font-family="OpenSansCondensedLight" y="0.8em" display="none" xml:space="preserve" transform="translate(0,0)"/></g></g></g><g transform="translate(51,361)"><g><g>
<path d="M110,0H0v68h110V0L110,0z" stroke="#000000" stroke-dasharray="none" fill="#FFFFFF"/>
<rect x="4.8" y="3.1" width="100.4" height="61.8" fill="none"/>
<circle fill="none" cx="55" cy="0" r="0.1"/>
<circle fill="none" cx="82.3" cy="0" r="0.1"/>
<circle fill="none" cx="110" cy="17.1" r="0.1"/>
<circle fill="none" cx="110" cy="34" r="0.1"/>
<circle fill="none" cx="110" cy="50.9" r="0.1"/>
<circle fill="none" cx="82.3" cy="68" r="0.1"/>
<circle fill="none" cx="55" cy="68" r="0.1"/>
<circle fill="none" cx="27.8" cy="68" r="0.1"/>
<circle fill="none" cx="0" cy="50.9" r="0.1"/>
<circle fill="none" cx="0" cy="34" r="0.1"/>
<circle fill="none" cx="0" cy="17.1" r="0.1"/>
<circle fill="none" cx="27.8" cy="0" r="0.1"/>
</g></g><rect stroke="none" stroke-width="0" fill="#FFFFFF" x="0" y="0" width="0" height="0" transform="translate(109.9,33.9)"/><path stroke="#000000" fill="none" d=""/><text font-family="OpenSansCondensedLight" font-size="14pt" fill="black" transform="translate(109.9,33.9)"/><rect stroke-width="0" fill="none" width="100.4" height="61.8" transform="translate(4.8,3.1)"/><text font-family="OpenSansCondensedLight" font-size="14pt" fill="black" transform="translate(4.8,3.1)" text-anchor="middle"><tspan x="50.2" y="26.7">Policy</tspan><tspan x="50.2" y="47.7">Facility 118</tspan></text><path stroke="#000000" fill="none" transform="translate(4.8,3.1)" d="M 67.4 50 94.7 50"/></g><g transform="translate(167,361)"><g><g>
<path d="M110,0H0v68h110V0L110,0z" stroke="#000000" stroke-dasharray="none" fill="#FFFFFF"/>
<rect x="4.8" y="3.1" width="100.4" height="61.8" fill="none"/>
<circle fill="none" cx="55" cy="0" r="0.1"/>
<circle fill="none" cx="82.3" cy="0" r="0.1"/>
<circle fill="none" cx="110" cy="17.1" r="0.1"/>
<circle fill="none" cx="110" cy="34" r="0.1"/>
<circle fill="none" cx="110" cy="50.9" r="0.1"/>
<circle fill="none" cx="82.3" cy="68" r="0.1"/>
<circle fill="none" cx="55" cy="68" r="0.1"/>
<circle fill="none" cx="27.8" cy="68" r="0.1"/>
<circle fill="none" cx="0" cy="50.9" r="0.1"/>
<circle fill="none" cx="0" cy="34" r="0.1"/>
<circle fill="none" cx="0" cy="17.1" r="0.1"/>
<circle fill="none" cx="27.8" cy="0" r="0.1"/>
</g></g><rect stroke="none" stroke-width="0" fill="#FFFFFF" x="0" y="0" width="0" height="0" transform="translate(109.9,33.9)"/><path stroke="#000000" fill="none" d=""/><text font-family="OpenSansCondensedLight" font-size="14pt" fill="black" transform="translate(109.9,33.9)"/><rect stroke-width="0" fill="none" width="100.4" height="61.8" transform="translate(4.8,3.1)"/><text font-family="OpenSansCondensedLight" font-size="14pt" fill="black" transform="translate(4.8,3.1)" text-anchor="middle"><tspan x="50.2" y="16.2">Remedial</tspan><tspan x="50.2" y="37.2">Action</tspan><tspan x="50.2" y="58.2">Facility 120</tspan></text><path stroke="#000000" fill="none" transform="translate(4.8,3.1)" d="M 67 60 95 60"/></g><g><path stroke="black" stroke-dasharray="none" d="M 285 332 367 332" fill="none"/><path fill="black" stroke="black" d="" transform="translate(285,332) scale(1,1) rotate(0)"/><path fill="black" stroke="black" d="" transform="translate(367,332) scale(1,1) rotate(-180)"/><g><g label-idx="0" cursor="move" transform="translate(326, 332)"><rect fill="white" rx="3" ry="3" x="0" y="0" width="0" height="0"/><text text-anchor="middle" font-size="14pt" font-family="OpenSansCondensedLight" y="0.8em" display="none" xml:space="preserve" transform="translate(0,0)"/></g></g></g><g transform="translate(387,221)"><g><g>
<path d="M168,0H0v74h168V0L168,0z" stroke="#000000" stroke-dasharray="none" fill="#FFFFFF"/>
<rect x="7.3" y="3.4" width="153.3" height="67.3" fill="none"/>
<circle fill="none" cx="84" cy="0" r="0.1"/>
<circle fill="none" cx="125.6" cy="0" r="0.1"/>
<circle fill="none" cx="168" cy="18.7" r="0.1"/>
<circle fill="none" cx="168" cy="37" r="0.1"/>
<circle fill="none" cx="168" cy="55.3" r="0.1"/>
<circle fill="none" cx="125.6" cy="74" r="0.1"/>
<circle fill="none" cx="84" cy="74" r="0.1"/>
<circle fill="none" cx="42.4" cy="74" r="0.1"/>
<circle fill="none" cx="0" cy="55.3" r="0.1"/>
<circle fill="none" cx="0" cy="37" r="0.1"/>
<circle fill="none" cx="0" cy="18.7" r="0.1"/>
<circle fill="none" cx="42.4" cy="0" r="0.1"/>
</g></g><rect stroke="none" stroke-width="0" fill="#FFFFFF" x="0" y="0" width="0" height="0" transform="translate(167.9,36.9)"/><path stroke="#000000" fill="none" d=""/><text font-family="OpenSansCondensedLight" font-size="14pt" fill="black" transform="translate(167.9,36.9)"/><rect stroke-width="0" fill="none" width="153.3" height="67.3" transform="translate(7.3,3.4)"/><text font-family="OpenSansCondensedLight" font-size="14pt" fill="black" transform="translate(7.3,3.4)" text-anchor="middle"><tspan x="76.7" y="29.4">Network Access</tspan><tspan x="76.7" y="50.4">Control 122</tspan></text><path stroke="#000000" fill="none" transform="translate(7.3,3.4)" d="M 93.5 53 121.5 53"/></g><g transform="translate(409,321)"><g><g>
<g stroke="#000000" stroke-dasharray="none" fill="#FFFFFF">
    <path d="M121.7,18.1H0v73.8c0,9.9,27.3,18.1,61,18.1s61,-8.2,61,-18.1v-73.8L121.7,18.1L121.7,18.1z"/>
    <path d="M61,0C27.3,0,0,8.2,0,18.1s27.3,18.1,61,18.1s61,-8.2,61,-18.1C121.7,8.2,94.5,0,61,0L61,0z"/>
</g>
<rect x="6.5" y="40.2" width="108.8" height="52.2" fill="none"/>
<circle fill="none" cx="61" cy="0" r="0.1"/>
<circle fill="none" cx="93" cy="2.8" r="0.1"/>
<circle fill="none" cx="122" cy="18.1" r="0.1"/>
<circle fill="none" cx="122" cy="55" r="0.1"/>
<circle fill="none" cx="122" cy="91.9" r="0.1"/>
<circle fill="none" cx="94.6" cy="107" r="0.1"/>
<circle fill="none" cx="61" cy="110" r="0.1"/>
<circle fill="none" cx="25.6" cy="106.6" r="0.1"/>
<circle fill="none" cx="0" cy="91.9" r="0.1"/>
<circle fill="none" cx="0" cy="55" r="0.1"/>
<circle fill="none" cx="0" cy="18.1" r="0.1"/>
<circle fill="none" cx="28.8" cy="2.8" r="0.1"/>
</g></g><rect stroke="none" stroke-width="0" fill="#FFFFFF" x="0" y="0" width="0" height="0" transform="translate(121.9,54.9)"/><path stroke="#000000" fill="none" d=""/><text font-family="OpenSansCondensedLight" font-size="14pt" fill="black" transform="translate(121.9,54.9)"/><rect stroke-width="0" fill="none" width="108.8" height="52.2" transform="translate(6.5,40.2)"/><text font-family="OpenSansCondensedLight" font-size="14pt" fill="black" transform="translate(6.5,40.2)" text-anchor="middle"><tspan x="54.4" y="11.4">Network</tspan><tspan x="54.4" y="32.4">Access Rules</tspan><tspan x="54.4" y="53.4">124</tspan></text><path stroke="#000000" fill="none" transform="translate(6.5,40.2)" d="M 40.4 55 68.4 55"/></g><g transform="translate(725,83)"><g><g>
<g stroke-width="0.5" stroke="#000000" stroke-dasharray="none" fill="#FFFFFF">
    <path d="M0,75.9l9.9,-9.5h59.6l9.9,9.5v22.3H0V75.9z"/>
    <path d="M4.1,79.1H75.4c0.4,0,0.8,0.4,0.8,0.8v14.4c0,0.4,-0.4,0.8,-0.8,0.8H4.1c-0.4,0,-0.8,-0.4,-0.8,-0.8v-14.4C3.3,79.5,3.7,79.1,4.1,79.1"/>
    <path d="M57.1,85.6c0,1,-1.7,1,-1.7,0C55.5,84.4,57.1,84.4,57.1,85.6"/>
    <path d="M64.6,80.9h1.7v12.6h-1.7V80.9z"/>
    <path d="M5.8,80.9h5.1c0.4,0,0.8,0.4,0.8,0.8v3.2c0,0.4,-0.4,0.8,-0.8,0.8h-5.1c-0.4,0,-0.8,-0.4,-0.8,-0.8v-3.1C4.9,81.1,5.4,80.9,5.8,80.9"/>
    <path d="M5.8,88.8h5.1c0.4,0,0.8,0.4,0.8,0.8v3.2c0,0.4,-0.4,0.8,-0.8,0.8h-5.1c-0.4,0,-0.8,-0.4,-0.8,-0.8v-3.2C4.9,89.2,5.4,88.8,5.8,88.8"/>
    <path d="M15.8,80.9h5.1c0.4,0,0.8,0.4,0.8,0.8v3.2c0,0.4,-0.4,0.8,-0.8,0.8h-5.1c-0.4,0,-0.8,-0.4,-0.8,-0.8v-3.1C15,81.1,15.2,80.9,15.8,80.9"/>
    <path d="M25.7,80.9h5.1c0.4,0,0.8,0.4,0.8,0.8v3.2c0,0.4,-0.4,0.8,-0.8,0.8h-5.1c-0.4,0,-0.8,-0.4,-0.8,-0.8v-3.1C24.9,81.1,25.3,80.9,25.7,80.9"/>
    <path d="M35.6,80.9h5.1c0.4,0,0.8,0.4,0.8,0.8v3.2c0,0.4,-0.4,0.8,-0.8,0.8h-5.1c-0.4,0,-0.8,-0.4,-0.8,-0.8v-3.1C34.7,81.1,35.2,80.9,35.6,80.9"/>
    <path d="M45.6,80.9h5.1c0.4,0,0.8,0.4,0.8,0.8v3.2c0,0.4,-0.4,0.8,-0.8,0.8h-5.1c-0.4,0,-0.8,-0.4,-0.8,-0.8v-3.1C44.8,81.1,45,80.9,45.6,80.9"/>
    <path d="M15.8,88.8h5.1c0.4,0,0.8,0.4,0.8,0.8v3.2c0,0.4,-0.4,0.8,-0.8,0.8h-5.1c-0.4,0,-0.8,-0.4,-0.8,-0.8v-3.2C15,89.2,15.2,88.8,15.8,88.8"/>
    <path d="M25.7,88.8h5.1c0.4,0,0.8,0.4,0.8,0.8v3.2c0,0.4,-0.4,0.8,-0.8,0.8h-5.1c-0.4,0,-0.8,-0.4,-0.8,-0.8v-3.2C24.9,89.2,25.3,88.8,25.7,88.8"/>
    <path d="M35.6,88.8h5.1c0.4,0,0.8,0.4,0.8,0.8v3.2c0,0.4,-0.4,0.8,-0.8,0.8h-5.1c-0.4,0,-0.8,-0.4,-0.8,-0.8v-3.2C34.7,89.2,35.2,88.8,35.6,88.8"/>
    <path d="M45.6,88.8h5.1c0.4,0,0.8,0.4,0.8,0.8v3.2c0,0.4,-0.4,0.8,-0.8,0.8h-5.1c-0.4,0,-0.8,-0.4,-0.8,-0.8v-3.2C44.8,89.2,45,88.8,45.6,88.8"/>
    <path d="M6.6,75.9l6.6,-6.3h54.7l6.6,6.3H6.6z"/>
    <path d="M57.1,82.4c0,1,-1.7,1,-1.7,0C55.5,81.3,57.1,81.3,57.1,82.4"/>
    <path d="M67.8,80.9h1.7v12.6h-1.7V80.9z"/>
    <path d="M71.3,80.9h1.7v12.6h-1.7V80.9z"/>
    <path d="M57.1,88.8c0,1,-1.7,1,-1.7,0C55.5,87.8,57.1,87.6,57.1,88.8"/>
    <path d="M57.1,91.9c0,1,-1.7,1,-1.7,0C55.5,90.9,57.1,90.9,57.1,91.9"/>
    <path d="M0,53.9l9.9,-9.5h59.6l9.9,9.5v22.3H0V53.9z"/>
    <path d="M4.1,57H75.4c0.4,0,0.8,0.4,0.8,0.8v14.4c0,0.4,-0.4,0.8,-0.8,0.8H4.1c-0.4,0,-0.8,-0.4,-0.8,-0.8v-14.4C3.3,57.4,3.7,57,4.1,57"/>
    <path d="M57.1,63.3c0,1,-1.7,1,-1.7,0C55.5,62.3,57.1,62.3,57.1,63.3"/>
    <path d="M64.6,58.6h1.7v12.6h-1.7V58.6z"/>
    <path d="M5.8,58.6h5.1c0.4,0,0.8,0.4,0.8,0.8v3.2c0,0.4,-0.4,0.8,-0.8,0.8h-5.1c-0.4,0,-0.8,-0.4,-0.8,-0.8v-3.2C4.9,59,5.4,58.6,5.8,58.6"/>
    <path d="M5.8,66.7h5.1c0.4,0,0.8,0.4,0.8,0.8v3.2c0,0.4,-0.4,0.8,-0.8,0.8h-5.1c-0.4,0,-0.8,-0.4,-0.8,-0.8V67.5C4.9,66.9,5.4,66.7,5.8,66.7"/>
    <path d="M15.8,58.6h5.1c0.4,0,0.8,0.4,0.8,0.8v3.2c0,0.4,-0.4,0.8,-0.8,0.8h-5.1c-0.4,0,-0.8,-0.4,-0.8,-0.8v-3.2C15,59,15.2,58.6,15.8,58.6"/>
    <path d="M25.7,58.6h5.1c0.4,0,0.8,0.4,0.8,0.8v3.2c0,0.4,-0.4,0.8,-0.8,0.8h-5.1c-0.4,0,-0.8,-0.4,-0.8,-0.8v-3.2C24.9,59,25.3,58.6,25.7,58.6"/>
    <path d="M35.6,58.6h5.1c0.4,0,0.8,0.4,0.8,0.8v3.2c0,0.4,-0.4,0.8,-0.8,0.8h-5.1c-0.4,0,-0.8,-0.4,-0.8,-0.8v-3.2C34.7,59,35.2,58.6,35.6,58.6"/>
    <path d="M45.6,58.6h5.1c0.4,0,0.8,0.4,0.8,0.8v3.2c0,0.4,-0.4,0.8,-0.8,0.8h-5.1c-0.4,0,-0.8,-0.4,-0.8,-0.8v-3.2C44.8,59,45,58.6,45.6,58.6"/>
    <path d="M15.8,66.7h5.1c0.4,0,0.8,0.4,0.8,0.8v3.2c0,0.4,-0.4,0.8,-0.8,0.8h-5.1c-0.4,0,-0.8,-0.4,-0.8,-0.8V67.5C15,66.9,15.2,66.7,15.8,66.7"/>
    <path d="M25.7,66.7h5.1c0.4,0,0.8,0.4,0.8,0.8v3.2c0,0.4,-0.4,0.8,-0.8,0.8h-5.1c-0.4,0,-0.8,-0.4,-0.8,-0.8V67.5C24.9,66.9,25.3,66.7,25.7,66.7"/>
    <path d="M35.6,66.7h5.1c0.4,0,0.8,0.4,0.8,0.8v3.2c0,0.4,-0.4,0.8,-0.8,0.8h-5.1c-0.4,0,-0.8,-0.4,-0.8,-0.8V67.5C34.7,66.9,35.2,66.7,35.6,66.7"/>
    <path d="M45.6,66.7h5.1c0.4,0,0.8,0.4,0.8,0.8v3.2c0,0.4,-0.4,0.8,-0.8,0.8h-5.1c-0.4,0,-0.8,-0.4,-0.8,-0.8V67.5C44.8,66.9,45,66.7,45.6,66.7"/>
    <path d="M6.6,53.9l6.6,-6.3h54.7l6.6,6.3H6.6z"/>
    <path d="M57.1,60.2c0,1,-1.7,1,-1.7,0S57.1,59.2,57.1,60.2"/>
    <path d="M67.8,58.6h1.7v12.6h-1.7V58.6z"/>
    <path d="M71.3,58.6h1.7v12.6h-1.7V58.6z"/>
    <path d="M57.1,66.7c0,1,-1.7,1,-1.7,0C55.5,65.7,57.1,65.5,57.1,66.7"/>
    <path d="M57.1,69.8c0,1,-1.7,1,-1.7,0C55.5,68.9,57.1,68.6,57.1,69.8"/>
    <path d="M0,31.6l9.9,-9.5h59.6l9.9,9.5v22.3H0V31.6z"/>
    <path d="M4.1,34.7H75.4c0.4,0,0.8,0.4,0.8,0.8v14.4c0,0.4,-0.4,0.8,-0.8,0.8H4.1c-0.4,0,-0.8,-0.4,-0.8,-0.8v-14.4C3.3,35.1,3.7,34.7,4.1,34.7"/>
    <path d="M57.1,41.2c0,1,-1.7,1,-1.7,0C55.5,40,57.1,40,57.1,41.2"/>
    <path d="M64.6,36.3h1.7v12.6h-1.7V36.3z"/>
    <path d="M5.8,36.3h5.1c0.4,0,0.8,0.4,0.8,0.8v3.2c0,0.4,-0.4,0.8,-0.8,0.8h-5.1c-0.4,0,-0.8,-0.4,-0.8,-0.8v-3.2C4.9,36.7,5.4,36.3,5.8,36.3"/>
    <path d="M5.8,44.4h5.1c0.4,0,0.8,0.4,0.8,0.8v3.2c0,0.4,-0.4,0.8,-0.8,0.8h-5.1c-0.4,0,-0.8,-0.4,-0.8,-0.8v-3.2C4.9,44.8,5.4,44.4,5.8,44.4"/>
    <path d="M15.8,36.3h5.1c0.4,0,0.8,0.4,0.8,0.8v3.2c0,0.4,-0.4,0.8,-0.8,0.8h-5.1c-0.4,0,-0.8,-0.4,-0.8,-0.8v-3.2C15,36.7,15.2,36.3,15.8,36.3"/>
    <path d="M25.7,36.3h5.1c0.4,0,0.8,0.4,0.8,0.8v3.2c0,0.4,-0.4,0.8,-0.8,0.8h-5.1c-0.4,0,-0.8,-0.4,-0.8,-0.8v-3.2C24.9,36.7,25.3,36.3,25.7,36.3"/>
    <path d="M35.6,36.3h5.1c0.4,0,0.8,0.4,0.8,0.8v3.2c0,0.4,-0.4,0.8,-0.8,0.8h-5.1c-0.4,0,-0.8,-0.4,-0.8,-0.8v-3.2C34.7,36.7,35.2,36.3,35.6,36.3"/>
    <path d="M45.6,36.3h5.1c0.4,0,0.8,0.4,0.8,0.8v3.2c0,0.4,-0.4,0.8,-0.8,0.8h-5.1c-0.4,0,-0.8,-0.4,-0.8,-0.8v-3.2C44.8,36.7,45,36.3,45.6,36.3"/>
    <path d="M15.8,44.4h5.1c0.4,0,0.8,0.4,0.8,0.8v3.2c0,0.4,-0.4,0.8,-0.8,0.8h-5.1c-0.4,0,-0.8,-0.4,-0.8,-0.8v-3.2C15,44.8,15.2,44.4,15.8,44.4"/>
    <path d="M25.7,44.4h5.1c0.4,0,0.8,0.4,0.8,0.8v3.2c0,0.4,-0.4,0.8,-0.8,0.8h-5.1c-0.4,0,-0.8,-0.4,-0.8,-0.8v-3.2C24.9,44.8,25.3,44.4,25.7,44.4"/>
    <path d="M35.6,44.4h5.1c0.4,0,0.8,0.4,0.8,0.8v3.2c0,0.4,-0.4,0.8,-0.8,0.8h-5.1c-0.4,0,-0.8,-0.4,-0.8,-0.8v-3.2C34.7,44.8,35.2,44.4,35.6,44.4"/>
    <path d="M45.6,44.4h5.1c0.4,0,0.8,0.4,0.8,0.8v3.2c0,0.4,-0.4,0.8,-0.8,0.8h-5.1c-0.4,0,-0.8,-0.4,-0.8,-0.8v-3.2C44.8,44.8,45,44.4,45.6,44.4"/>
    <path d="M6.6,31.6l6.6,-6.3h54.7l6.6,6.3H6.6z"/>
    <path d="M57.1,37.9c0,1,-1.7,1,-1.7,0C55.5,36.9,57.1,36.9,57.1,37.9"/>
    <path d="M67.8,36.3h1.7v12.6h-1.7V36.3z"/>
    <path d="M71.3,36.3h1.7v12.6h-1.7V36.3z"/>
    <path d="M57.1,44.4c0,1,-1.7,1,-1.7,0C55.5,43.4,57.1,43.2,57.1,44.4"/>
    <path d="M57.1,47.5c0,1,-1.7,1,-1.7,0C55.5,46.6,57.1,46.4,57.1,47.5"/>
    <path d="M0,9.5L9.9,0h59.6l9.9,9.5v22.3H0V9.5z"/>
    <path d="M4.1,12.6H75.4c0.4,0,0.8,0.4,0.8,0.8v14.4c0,0.4,-0.4,0.8,-0.8,0.8H4.1c-0.4,0,-0.8,-0.4,-0.8,-0.8v-14.4C3.3,13,3.7,12.6,4.1,12.6"/>
    <path d="M57.1,18.9c0,1,-1.7,1,-1.7,0C55.5,18,57.1,18,57.1,18.9"/>
    <path d="M64.6,14.2h1.7v12.6h-1.7V14.2z"/>
    <path d="M5.8,14.2h5.1c0.4,0,0.8,0.4,0.8,0.8v3.2c0,0.4,-0.4,0.8,-0.8,0.8h-5.1c-0.4,0,-0.8,-0.4,-0.8,-0.8V15C4.9,14.6,5.4,14.2,5.8,14.2"/>
    <path d="M5.8,22.1h5.1c0.4,0,0.8,0.4,0.8,0.8v3.2c0,0.4,-0.4,0.8,-0.8,0.8h-5.1c-0.4,0,-0.8,-0.4,-0.8,-0.8v-3.1C4.9,22.5,5.4,22.1,5.8,22.1"/>
    <path d="M15.8,14.2h5.1c0.4,0,0.8,0.4,0.8,0.8v3.2c0,0.4,-0.4,0.8,-0.8,0.8h-5.1c-0.4,0,-0.8,-0.4,-0.8,-0.8V15C15,14.6,15.2,14.2,15.8,14.2"/>
    <path d="M25.7,14.2h5.1c0.4,0,0.8,0.4,0.8,0.8v3.2c0,0.4,-0.4,0.8,-0.8,0.8h-5.1c-0.4,0,-0.8,-0.4,-0.8,-0.8V15C24.9,14.6,25.3,14.2,25.7,14.2"/>
    <path d="M35.6,14.2h5.1c0.4,0,0.8,0.4,0.8,0.8v3.2c0,0.4,-0.4,0.8,-0.8,0.8h-5.1c-0.4,0,-0.8,-0.4,-0.8,-0.8V15C34.7,14.6,35.2,14.2,35.6,14.2"/>
    <path d="M45.6,14.2h5.1c0.4,0,0.8,0.4,0.8,0.8v3.2c0,0.4,-0.4,0.8,-0.8,0.8h-5.1c-0.4,0,-0.8,-0.4,-0.8,-0.8V15C44.8,14.6,45,14.2,45.6,14.2"/>
    <path d="M15.8,22.1h5.1c0.4,0,0.8,0.4,0.8,0.8v3.2c0,0.4,-0.4,0.8,-0.8,0.8h-5.1c-0.4,0,-0.8,-0.4,-0.8,-0.8v-3.1C15,22.5,15.2,22.1,15.8,22.1"/>
    <path d="M25.7,22.1h5.1c0.4,0,0.8,0.4,0.8,0.8v3.2c0,0.4,-0.4,0.8,-0.8,0.8h-5.1c-0.4,0,-0.8,-0.4,-0.8,-0.8v-3.1C24.9,22.5,25.3,22.1,25.7,22.1"/>
    <path d="M35.6,22.1h5.1c0.4,0,0.8,0.4,0.8,0.8v3.2c0,0.4,-0.4,0.8,-0.8,0.8h-5.1c-0.4,0,-0.8,-0.4,-0.8,-0.8v-3.1C34.7,22.5,35.2,22.1,35.6,22.1"/>
    <path d="M45.6,22.1h5.1c0.4,0,0.8,0.4,0.8,0.8v3.2c0,0.4,-0.4,0.8,-0.8,0.8h-5.1c-0.4,0,-0.8,-0.4,-0.8,-0.8v-3.1C44.8,22.5,45,22.1,45.6,22.1"/>
    <path d="M6.6,9.5l6.6,-6.3h54.7l6.6,6.3H6.6z"/>
    <path d="M57.1,15.8c0,1,-1.7,1,-1.7,0S57.1,14.8,57.1,15.8"/>
    <path d="M67.8,14.2h1.7v12.6h-1.7V14.2z"/>
    <path d="M71.3,14.2h1.7v12.6h-1.7V14.2z"/>
    <path d="M57.1,22.1c0,1,-1.7,1,-1.7,0C55.5,21.1,57.1,21.1,57.1,22.1"/>
    <path d="M57.1,25.4c0,1,-1.7,1,-1.7,0C55.5,24.5,57.1,24.3,57.1,25.4"/>
</g>
<rect x="3.3" y="14.6" width="73" height="74.5" fill="none"/>
<polygon fill="none" points="69.5,0 9.9,0 0,9.5 0,98.3 79.4,98.3 79.4,9.5"/>
<circle fill="none" cx="39.7" cy="0" r="0.1"/>
<circle fill="none" cx="59.3" cy="0" r="0.1"/>
<circle fill="none" cx="79.3" cy="24.8" r="0.1"/>
<circle fill="none" cx="79.3" cy="49.1" r="0.1"/>
<circle fill="none" cx="79.3" cy="73.5" r="0.1"/>
<circle fill="none" cx="59.3" cy="98.3" r="0.1"/>
<circle fill="none" cx="39.7" cy="98.3" r="0.1"/>
<circle fill="none" cx="20.1" cy="98.3" r="0.1"/>
<circle fill="none" cx="0" cy="73.5" r="0.1"/>
<circle fill="none" cx="0" cy="49.1" r="0.1"/>
<circle fill="none" cx="0" cy="24.8" r="0.1"/>
<circle fill="none" cx="20.1" cy="0" r="0.1"/>
</g></g><rect stroke="none" stroke-width="1" fill="#FFFFFF" x="0" y="0" width="40" height="20" transform="translate(119.2,39)"/><path stroke="#000000" fill="none" d="M79.3,49.1 C96.3,66 102.3,32.2 119.2 49.1"/><text font-family="OpenSansCondensedLight" font-size="14pt" fill="black" transform="translate(119.2,39)" text-anchor="middle"><tspan x="20" y="16.3">126</tspan></text><rect stroke-width="0" fill="none" width="73" height="74.5" transform="translate(3.3,14.6)"/><text font-family="OpenSansCondensedLight" font-size="14pt" fill="black" transform="translate(3.3,14.6)" text-anchor="middle"><tspan x="36.5" y="43.6"> </tspan></text><path stroke="#000000" fill="none" transform="translate(3.3,14.6)" d="M 0 0"/></g><g><path stroke="black" stroke-dasharray="none" d="M 574 254 725 156" fill="none"/><path fill="black" stroke="black" d="" transform="translate(574,254) scale(1,1) rotate(-33)"/><path fill="black" stroke="black" d="" transform="translate(725,156) scale(1,1) rotate(-213)"/><g><g label-idx="0" cursor="move" transform="translate(649.5, 205)"><rect fill="white" rx="3" ry="3" x="0" y="0" width="0" height="0"/><text text-anchor="middle" font-size="14pt" font-family="OpenSansCondensedLight" y="0.8em" display="none" xml:space="preserve" transform="translate(0,0)"/></g></g></g><g transform="translate(716,218)"><g><g>
<g stroke-width="0.5" stroke="#000000" stroke-dasharray="none" fill="#FFFFFF">
    <path d="M90.4,0c0.1,0,0.3,0.1,0.3,0.1c0.1,0,0.2,0.1,0.3,0.2c0.1,0.1,0.2,0.2,0.2,0.3c0.1,0.1,0.1,0.2,0.1,0.3l1.4,51.4c0,0.1,0,0.2,-0.1,0.4c-0.1,0.1,-0.1,0.2,-0.2,0.3c-0.1,0.1,-0.2,0.2,-0.3,0.2c-0.1,0.1,-0.2,0.1,-0.3,0.1H7.3c-0.1,0,-0.2,-0.1,-0.3,-0.1c-0.1,-0.1,-0.2,-0.1,-0.3,-0.2c-0.1,-0.1,-0.2,-0.2,-0.2,-0.3c-0.1,-0.1,-0.1,-0.3,-0.1,-0.4l1.3,-51.3c0,-0.1,0.1,-0.2,0.1,-0.3c0.1,-0.1,0.1,-0.2,0.2,-0.3c0.1,-0.1,0.2,-0.1,0.3,-0.2C8.4,0.1,8.5,0,8.6,0H90.4z"/>
    <path d="M91.6,53.4c0.1,0,0.2,0,0.4,0.1s0.2,0.1,0.3,0.1c0.1,0.1,0.2,0.1,0.2,0.1c0.1,0.1,0.1,0.1,0.1,0.2l6.4,25.2c-0.1,0.4,-0.7,0.5,-0.9,0.5H0.9c-0.2,0,-0.3,-0,-0.4,-0.1c-0.4,-0.1,-0.5,-0.4,-0.5,-0.5l6.3,-25.2c0,-0.1,0.1,-0.1,0.1,-0.2c0.1,-0.1,0.1,-0.1,0.2,-0.1c0.1,-0.1,0.2,-0.1,0.3,-0.1c0.1,-0.1,0.3,-0.1,0.4,-0.1L91.6,53.4L91.6,53.4z"/>
    <path d="M99,79.1c-0.1,0.7,-0.1,1.4,-0.2,2.1c-0,0.1,-0.3,0.3,-0.4,0.4c-0.1,0.1,-0.5,0.1,-0.6,0.1l0.2,-2C98.6,79.6,99,79.3,99,79.1z"/>
    <polygon points="98.1,79.6 97.9,81.6 1,81.6 0.9,79.6"/>
    <path d="M1.1,81.6c-0.1,0,-0.3,0,-0.5,-0.1c-0.2,-0.1,-0.4,-0.2,-0.4,-0.2c-0.1,-0.1,-0.1,-0.1,-0.1,-0.2l0,0c-0.1,-0.7,-0.1,-1.4,-0.2,-2.1c0,0.2,0.3,0.5,0.9,0.5"/>
    <path d="M94.3,67.5c0,0.4,-0.3,0.8,-0.7,0.8H6.1c-0.4,0,-0.7,-0.3,-0.7,-0.8l3,-12c0,-0.4,0.3,-0.8,0.7,-0.8h81.5c0.4,0,0.7,0.3,0.7,0.8L94.3,67.5z"/>
    <path d="M8.5,58.5c0.1,0.1,0.1,0.1,0.1,0.1c0.1,0,0.1,0,0.2,0h3.9c0.1,0,0.1,0,0.2,0s0.1,-0.1,0.1,-0.1s0.1,-0.1,0.1,-0.1c0.1,-0.1,0.1,-0.1,0.1,-0.1l0.3,-1.5c0,-0.1,0,-0.1,-0.1,-0.1c-0.1,-0.1,-0.1,-0.1,-0.1,-0.1c-0.1,0,-0.1,-0.1,-0.1,-0.1c-0.1,0,-0.1,0,-0.2,0H9.2c-0.1,0,-0.1,0,-0.2,0c-0.1,0,-0.1,0.1,-0.1,0.1c-0.1,0.1,-0.1,0.1,-0.1,0.1c-0.1,0.1,-0.1,0.1,-0.1,0.1l-0.3,1.5c0,0.1,0,0.1,0,0.1C8.4,58.5,8.4,58.5,8.5,58.5L8.5,58.5zM13.6,58.5c0.1,0.1,0.1,0.1,0.1,0.1c0.1,0,0.1,0,0.2,0h3.9c0.1,0,0.1,0,0.2,0s0.1,-0.1,0.1,-0.1c0.1,-0.1,0.1,-0.1,0.1,-0.1c0.1,-0.1,0.1,-0.1,0.1,-0.1l0.3,-1.5c0,-0.1,0,-0.1,-0.1,-0.1c-0.1,-0.1,-0.1,-0.1,-0.1,-0.1c-0.1,0,-0.1,-0.1,-0.1,-0.1s-0.1,0,-0.2,0H14.3c-0.1,0,-0.1,0,-0.2,0s-0.1,0.1,-0.1,0.1s-0.1,0.1,-0.1,0.1c-0.1,0.1,-0.1,0.1,-0.1,0.1l-0.3,1.5c0,0.1,0,0.1,0.1,0.1C13.6,58.5,13.6,58.5,13.6,58.5L13.6,58.5zM19.2,56.8c-0.1,0,-0.1,0.1,-0.1,0.1s-0.1,0.1,-0.1,0.1c-0.1,0.1,-0.1,0.1,-0.1,0.1l-0.3,1.5c0,0.1,0,0.1,0.1,0.1c0.1,0.1,0.1,0.1,0.1,0.1c0.1,0.1,0.1,0.1,0.1,0.1c0.1,0,0.1,0,0.2,0h3.9c0.1,0,0.1,0,0.2,0s0.1,-0.1,0.1,-0.1c0.1,-0.1,0.1,-0.1,0.1,-0.1c0.1,-0.1,0.1,-0.1,0.1,-0.1l0.2,-1.5c0,-0.1,0,-0.1,-0.1,-0.1c-0.1,-0.1,-0.1,-0.1,-0.1,-0.1c-0.1,0,-0.1,-0.1,-0.1,-0.1s-0.1,0,-0.2,0h-3.9C19.3,56.7,19.3,56.7,19.2,56.8L19.2,56.8zM24.1,58.5c0.1,0,0.1,0,0.2,0h3.9c0.1,0,0.1,0,0.2,0s0.1,-0.1,0.1,-0.1c0.1,-0.1,0.1,-0.1,0.1,-0.1c0.1,-0.1,0.1,-0.1,0.1,-0.1l0.2,-1.5c0,-0.1,0,-0.1,-0.1,-0.1c-0.1,-0.1,-0.1,-0.1,-0.1,-0.1c-0.1,0,-0.1,-0.1,-0.1,-0.1s-0.1,0,-0.2,0h-3.8c-0.1,0,-0.1,0,-0.2,0s-0.1,0.1,-0.1,0.1c-0.1,0.1,-0.1,0.1,-0.1,0.1c-0.1,0.1,-0.1,0.1,-0.1,0.1l-0.2,1.5c0,0.1,0,0.1,0.1,0.1c0.1,0.1,0.1,0.1,0.1,0.1C24,58.5,24.1,58.5,24.1,58.5L24.1,58.5zM33.7,56.8c-0.1,-0.1,-0.1,-0.1,-0.1,-0.1s-0.1,0,-0.2,0h-3.9c-0.1,0,-0.1,0,-0.2,0c-0.1,0,-0.1,0.1,-0.1,0.1c-0.1,0,-0.1,0.1,-0.1,0.1c-0.1,0.1,-0.1,0.1,-0.1,0.1l-0.1,1.5c0,0.1,0,0.1,0.1,0.1c0.1,0.1,0.1,0.1,0.1,0.1c0.1,0.1,0.1,0.1,0.1,0.1s0.1,0,0.2,0h3.9c0.1,0,0.1,0,0.2,0c0.1,0,0.1,-0.1,0.1,-0.1c0.1,-0.1,0.1,-0.1,0.1,-0.1c0.1,-0.1,0.1,-0.1,0.1,-0.1l0.1,-1.5c0,-0.1,0,-0.1,-0.1,-0.1C33.9,56.9,33.9,56.8,33.7,56.8L33.7,56.8zM38.9,56.8c-0.1,0,-0.1,-0.1,-0.1,-0.1s-0.1,0,-0.2,0h-3.9c-0.1,0,-0.1,0,-0.2,0c-0.1,0,-0.1,0.1,-0.1,0.1c-0.1,0,-0.1,0.1,-0.1,0.1c-0.1,0.1,-0.1,0.1,-0.1,0.1l-0.1,1.5c0,0.1,0,0.1,0.1,0.1c0.1,0.1,0.1,0.1,0.1,0.1c0.1,0.1,0.1,0.1,0.1,0.1s0.1,0,0.2,0h3.9c0.1,0,0.1,0,0.2,0c0.1,0,0.1,-0.1,0.1,-0.1c0.1,0,0.1,-0.1,0.1,-0.1c0.1,-0.1,0.1,-0.1,0.1,-0.1l0.1,-1.5c0,-0.1,0,-0.1,-0.1,-0.1C39,56.9,38.9,56.8,38.9,56.8zM44,56.8c-0.1,0,-0.1,-0.1,-0.1,-0.1c-0.1,0,-0.1,0,-0.2,0h-3.9c-0.1,0,-0.1,0,-0.2,0s-0.1,0.1,-0.1,0.1s-0.1,0.1,-0.1,0.1c-0.1,0.1,-0.1,0.1,-0.1,0.1l-0.1,1.5c0,0.1,0,0.1,0.1,0.1c0.1,0.1,0.1,0.1,0.1,0.1c0.1,0.1,0.1,0.1,0.1,0.1c0.1,0,0.1,0,0.2,0h3.9c0.1,0,0.1,0,0.2,0c0.1,0,0.1,-0.1,0.1,-0.1c0.1,-0.1,0.1,-0.1,0.1,-0.1c0.1,-0.1,0.1,-0.1,0.1,-0.1l0.1,-1.5c0,-0.1,0,-0.1,-0.1,-0.1C44.1,56.9,44,56.8,44,56.8L44,56.8zM49.3,56.9c-0.1,-0.1,-0.1,-0.1,-0.1,-0.1c-0.1,0,-0.1,-0.1,-0.1,-0.1c-0.1,0,-0.1,0,-0.2,0h-3.9c-0.1,0,-0.1,0,-0.2,0c-0.1,0,-0.1,0.1,-0.1,0.1s-0.1,0.1,-0.1,0.1c-0.1,0.1,-0.1,0.1,-0.1,0.1l-0.1,1.5c0,0.1,0,0.1,0.1,0.1c0.1,0.1,0.1,0.1,0.1,0.1c0.1,0.1,0.1,0.1,0.1,0.1c0.1,0,0.1,0,0.2,0h3.9c0.1,0,0.1,0,0.2,0s0.1,-0.1,0.1,-0.1c0.1,-0.1,0.1,-0.1,0.1,-0.1c0.1,-0.1,0.1,-0.1,0.1,-0.1v-1.5C49.3,56.9,49.3,56.9,49.3,56.9L49.3,56.9zM54.4,56.9c-0.1,-0.1,-0.1,-0.1,-0.1,-0.1c-0.1,0,-0.1,-0.1,-0.1,-0.1c-0.1,0,-0.1,0,-0.2,0h-3.8c-0.1,0,-0.1,0,-0.2,0s-0.1,0.1,-0.1,0.1c-0.1,0,-0.1,0.1,-0.1,0.1c-0.1,0.1,-0.1,0.1,-0.1,0.1v1.5c0,0.1,0,0.1,0.1,0.1c0.1,0.1,0.1,0.1,0.1,0.1c0.1,0.1,0.1,0.1,0.1,0.1c0.1,0,0.1,0,0.2,0h3.9c0.1,0,0.1,0,0.2,0s0.1,-0.1,0.1,-0.1c0.1,-0.1,0.1,-0.1,0.1,-0.1c0.1,-0.1,0.1,-0.1,0.1,-0.1l-0.1,-1.5C54.4,56.9,54.4,56.9,54.4,56.9L54.4,56.9zM59.6,56.9c-0.1,-0.1,-0.1,-0.1,-0.1,-0.1c-0.1,0,-0.1,-0.1,-0.1,-0.1c-0.1,0,-0.1,0,-0.2,0h-3.9c-0.1,0,-0.1,0,-0.2,0s-0.1,0.1,-0.1,0.1c-0.1,0,-0.1,0.1,-0.1,0.1c-0.1,0.1,-0.1,0.1,-0.1,0.1l0.1,1.5c0,0.1,0,0.1,0.1,0.1c0.1,0.1,0.1,0.1,0.1,0.1c0.1,0.1,0.1,0.1,0.1,0.1c0.1,0,0.1,0,0.2,0h3.9c0.1,0,0.1,0,0.2,0s0.1,-0.1,0.1,-0.1c0.1,-0.1,0.1,-0.1,0.1,-0.1c0.1,-0.1,0.1,-0.1,0.1,-0.1l-0.1,-1.5C59.6,56.9,59.6,56.9,59.6,56.9L59.6,56.9zM64.7,56.9c-0.1,-0.1,-0.1,-0.1,-0.1,-0.1c-0.1,0,-0.1,-0.1,-0.1,-0.1c-0.1,0,-0.1,0,-0.2,0h-3.9c-0.1,0,-0.1,0,-0.2,0s-0.1,0.1,-0.1,0.1c-0.1,0,-0.1,0.1,-0.1,0.1c-0.1,0.1,-0.1,0.1,-0.1,0.1l0.1,1.5c0,0.1,0,0.1,0.1,0.1c0.1,0.1,0.1,0.1,0.1,0.1c0.1,0.1,0.1,0.1,0.1,0.1c0.1,0,0.1,0,0.2,0h3.9c0.1,0,0.1,0,0.2,0s0.1,-0.1,0.1,-0.1c0.1,-0.1,0.1,-0.1,0.1,-0.1c0.1,-0.1,0.1,-0.1,0.1,-0.1l-0.1,-1.5C64.7,56.9,64.7,56.9,64.7,56.9L64.7,56.9zM69.8,56.9c-0.1,-0.1,-0.1,-0.1,-0.1,-0.1c-0.1,-0.1,-0.1,-0.1,-0.1,-0.1c-0.1,0,-0.1,0,-0.2,0h-3.9c-0.1,0,-0.1,0,-0.2,0s-0.1,0.1,-0.1,0.1c-0.1,0,-0.1,0.1,-0.1,0.1c-0.1,0.1,-0.1,0.1,-0.1,0.1l0.2,1.5c0,0.1,0.1,0.1,0.1,0.1c0.1,0.1,0.1,0.1,0.1,0.1c0.1,0.1,0.1,0.1,0.1,0.1c0.1,0,0.1,0,0.2,0h3.9c0.1,0,0.1,0,0.2,0s0.1,-0.1,0.1,-0.1c0.1,-0.1,0.1,-0.1,0.1,-0.1c0.1,-0.1,0.1,-0.1,0.1,-0.1l-0.2,-1.5C69.9,56.9,69.9,56.9,69.8,56.9L69.8,56.9zM74.9,56.9c-0.1,-0.1,-0.1,-0.1,-0.1,-0.1c-0.1,0,-0.1,-0.1,-0.1,-0.1c-0.1,0,-0.1,0,-0.2,0h-3.8c-0.1,0,-0.1,0,-0.2,0s-0.1,0.1,-0.1,0.1s-0.1,0.1,-0.1,0.1c-0.1,0.1,-0.1,0.1,-0.1,0.1l0.2,1.5c0,0.1,0.1,0.1,0.1,0.1c0.1,0.1,0.1,0.1,0.1,0.1c0.1,0.1,0.1,0.1,0.1,0.1c0.1,0,0.1,0,0.2,0h3.9c0.1,0,0.1,0,0.2,0s0.1,-0.1,0.1,-0.1c0.1,-0.1,0.1,-0.1,0.1,-0.1c0.1,-0.1,0.1,-0.1,0.1,-0.1l-0.2,-1.5C75,56.9,74.9,56.9,74.9,56.9L74.9,56.9zM85.3,56.9c-0.1,-0.1,-0.1,-0.1,-0.1,-0.1c-0.1,0,-0.1,-0.1,-0.1,-0.1c-0.1,0,-0.1,0,-0.2,0h-9c-0.1,0,-0.1,0,-0.2,0s-0.1,0.1,-0.1,0.1c-0.1,0.1,-0.1,0.1,-0.1,0.1c-0.1,0.1,-0.1,0.1,-0.1,0.1l0.2,1.5c0,0.1,0.1,0.1,0.1,0.1c0.1,0.1,0.1,0.1,0.1,0.1c0.1,0.1,0.1,0.1,0.1,0.1c0.1,0,0.1,0,0.2,0h9.1c0.1,0,0.1,0,0.2,0s0.1,-0.1,0.1,-0.1c0.1,-0.1,0.1,-0.1,0.1,-0.1c0.1,-0.1,0.1,-0.1,0.1,-0.1l-0.3,-1.5L85.3,56.9L85.3,56.9zM86.3,58.5c0.1,0.1,0.1,0.1,0.1,0.1c0.1,0.1,0.1,0.1,0.1,0.1c0.1,0,0.1,0,0.2,0h3.9c0.1,0,0.1,0,0.2,0c0.1,0,0.1,-0.1,0.1,-0.1c0.1,-0.1,0.1,-0.1,0.1,-0.1c0,-0.1,0.1,-0.1,0,-0.1l-0.3,-1.5c0,-0.1,-0.1,-0.1,-0.1,-0.1s-0.1,-0.1,-0.1,-0.1c-0.1,-0.1,-0.1,-0.1,-0.1,-0.1c-0.1,0,-0.1,0,-0.2,0h-3.9c-0.1,0,-0.1,0,-0.2,0s-0.1,0.1,-0.1,0.1c-0.1,0.1,-0.1,0.1,-0.1,0.1c-0.1,0.1,-0.1,0.1,-0.1,0.1l0.3,1.5C86.2,58.5,86.2,58.5,86.3,58.5zM20,60.7c0.1,0,0.1,-0.1,0.1,-0.1c0.1,-0.1,0.1,-0.1,0.1,-0.1c0.1,-0.1,0.1,-0.1,0.1,-0.1l0.3,-1.5c0,-0.1,0,-0.1,-0.1,-0.1c-0.1,-0.1,-0.1,-0.1,-0.1,-0.1c-0.1,-0.1,-0.1,-0.1,-0.1,-0.1c-0.1,0,-0.1,0,-0.2,0H16.2c-0.1,0,-0.1,0,-0.2,0s-0.1,0.1,-0.1,0.1c-0.1,0.1,-0.1,0.1,-0.1,0.1c-0.1,0.1,-0.1,0.1,-0.1,0.1l-0.3,1.5c0,0.1,0,0.1,0.1,0.1c0.1,0.1,0.1,0.1,0.1,0.1c0.1,0.1,0.1,0.1,0.1,0.1c0.1,0,0.1,0,0.2,0h3.9C19.9,60.8,19.9,60.8,20,60.7zM7.9,60.7C8,60.8,8,60.8,8,60.8s0.1,0,0.2,0h6.2c0.1,0,0.1,0,0.2,0c0.1,0,0.1,-0.1,0.1,-0.1c0.1,-0.1,0.1,-0.1,0.1,-0.1c0.1,-0.1,0.1,-0.1,0.1,-0.1l0.3,-1.5c0,-0.1,0,-0.1,-0.1,-0.1c-0.1,-0.1,-0.1,-0.1,-0.1,-0.1c-0.1,-0.1,-0.1,-0.1,-0.1,-0.1c-0.1,0,-0.1,0,-0.2,0H8.6c-0.1,0,-0.1,0,-0.2,0c-0.1,0,-0.1,0.1,-0.1,0.1c-0.1,0.1,-0.1,0.1,-0.1,0.1c-0.1,0.1,-0.1,0.1,-0.1,0.1l-0.4,1.5c0,0.1,0,0.1,0,0.1C7.9,60.7,7.9,60.7,7.9,60.7L7.9,60.7zM25.2,60.7c0.1,0,0.1,-0.1,0.1,-0.1c0.1,0,0.1,0,0.1,0c0.1,-0.1,0.1,-0.1,0.1,-0.1l0.2,-1.5c0,-0.1,0,-0.1,-0.1,-0.1c-0.1,-0.1,-0.1,-0.1,-0.1,-0.1c-0.1,-0.1,-0.1,-0.1,-0.1,-0.1s-0.1,0,-0.2,0h-3.9c-0.1,0,-0.1,0,-0.2,0s-0.1,0.1,-0.1,0.1c-0.1,0.1,-0.1,0.1,-0.1,0.1c-0.1,0.1,-0.1,0.1,-0.1,0.1l-0.3,1.5c0,0.1,0,0.1,0.1,0.1c0.1,0.1,0.1,0.1,0.1,0.1c0.1,0.1,0.1,0.1,0.1,0.1c0.1,0,0.1,0,0.2,0h3.9C25.1,60.8,25.2,60.8,25.2,60.7L25.2,60.7zM30.5,60.7c0.1,0,0.1,-0.1,0.1,-0.1h0.1c0.1,-0.1,0.1,-0.1,0.1,-0.1l0.2,-1.5c0,-0.1,0,-0.1,-0.1,-0.1c-0.1,-0.1,-0.1,-0.1,-0.1,-0.1s-0.1,-0.1,-0.1,-0.1s-0.1,0,-0.2,0h-3.9c-0.1,0,-0.1,0,-0.2,0c-0.1,0,-0.1,0.1,-0.1,0.1c-0.1,0.1,-0.1,0.1,-0.1,0.1c-0.1,0.1,-0.1,0.1,-0.1,0.1l-0.2,1.5c0,0.1,0,0.1,0.1,0.1c0.1,0.1,0.1,0.1,0.1,0.1c0.1,0.1,0.1,0.1,0.1,0.1s0.1,0,0.2,0h3.9C30.3,60.8,30.5,60.8,30.5,60.7L30.5,60.7zM31.7,58.9c-0.1,0,-0.1,0.1,-0.1,0.1c-0.1,0.1,-0.1,0.1,-0.1,0.1c-0.1,0.1,-0.1,0.1,-0.1,0.1l-0.2,1.5c0,0.1,0,0.1,0.1,0.1c0.1,0.1,0.1,0.1,0.1,0.1c0.1,0.1,0.1,0.1,0.1,0.1c0.1,0,0.1,0,0.2,0h3.9c0.1,0,0.1,0,0.2,0c0.1,0,0.1,-0.1,0.1,-0.1c0.1,-0.1,0.1,-0.1,0.1,-0.1s0.1,-0.1,0.1,-0.1l0.1,-1.5c0,-0.1,0,-0.1,-0.1,-0.1c-0.1,-0.1,-0.1,-0.1,-0.1,-0.1c-0.1,-0.1,-0.1,-0.1,-0.1,-0.1c-0.1,0,-0.1,0,-0.2,0h-3.9C31.8,58.8,31.7,58.8,31.7,58.9L31.7,58.9zM36.9,58.9c-0.1,0,-0.1,0.1,-0.1,0.1c-0.1,0.1,-0.1,0.1,-0.1,0.1c-0.1,0.1,-0.1,0.1,-0.1,0.1l-0.1,1.5c0,0.1,0,0.1,0.1,0.1c0.1,0.1,0.1,0.1,0.1,0.1c0.1,0.1,0.1,0.1,0.1,0.1c0.1,0,0.1,0,0.2,0h3.9c0.1,0,0.1,0,0.2,0c0.1,0,0.1,-0.1,0.1,-0.1c0.1,-0.1,0.1,-0.1,0.1,-0.1s0.1,-0.1,0.1,-0.1l0.1,-1.5c0,-0.1,0,-0.1,-0.1,-0.1c-0.1,-0.1,-0.1,-0.1,-0.1,-0.1c-0.1,-0.1,-0.1,-0.1,-0.1,-0.1c-0.1,0,-0.1,0,-0.2,0h-3.9C37,58.8,36.9,58.8,36.9,58.9L36.9,58.9zM42.1,58.9c-0.1,0,-0.1,0.1,-0.1,0.1c-0.1,0.1,-0.1,0.1,-0.1,0.1c-0.1,0.1,-0.1,0.1,-0.1,0.1l-0.1,1.5c0,0.1,0,0.1,0.1,0.1c0.1,0.1,0.1,0.1,0.1,0.1c0.1,0.1,0.1,0.1,0.1,0.1c0.1,0,0.1,0,0.2,0h3.9c0.1,0,0.1,0,0.2,0c0.1,0,0.1,-0.1,0.1,-0.1c0.1,-0.1,0.1,-0.1,0.1,-0.1c0.1,-0.1,0.1,-0.1,0.1,-0.1l0.1,-1.5c0,-0.1,0,-0.1,-0.1,-0.1c-0.1,-0.1,-0.1,-0.1,-0.1,-0.1c-0.1,-0.1,-0.1,-0.1,-0.1,-0.1c-0.1,0,-0.1,0,-0.2,0h-3.9C42.2,58.8,42.2,58.8,42.1,58.9L42.1,58.9zM47.3,58.9c-0.1,0,-0.1,0.1,-0.1,0.1c-0.1,0.1,-0.1,0.1,-0.1,0.1c-0.1,0.1,-0.1,0.1,-0.1,0.1l-0.1,1.5c0,0.1,0,0.1,0.1,0.1c0.1,0.1,0.1,0.1,0.1,0.1c0.1,0.1,0.1,0.1,0.1,0.1c0.1,0,0.1,0,0.2,0h3.9c0.1,0,0.1,0,0.2,0s0.1,-0.1,0.1,-0.1c0.1,-0.1,0.1,-0.1,0.1,-0.1c0.1,-0.1,0.1,-0.1,0.1,-0.1l-0.1,-1.5c0,-0.1,0,-0.1,-0.1,-0.1c-0.1,-0.1,-0.1,-0.1,-0.1,-0.1c-0.1,-0.1,-0.1,-0.1,-0.1,-0.1c-0.1,0,-0.1,0,-0.2,0H47.3C47.4,58.8,47.3,58.8,47.3,58.9L47.3,58.9zM52.5,58.9c-0.1,0,-0.1,0.1,-0.1,0.1c-0.1,0.1,-0.1,0.1,-0.1,0.1c-0.1,0.1,-0.1,0.1,-0.1,0.1l0.1,1.5c0,0.1,0,0.1,0.1,0.1h0.1c0.1,0.1,0.1,0.1,0.1,0.1c0.1,0,0.1,0,0.2,0H56.5c0.1,0,0.1,0,0.2,0s0.1,-0.1,0.1,-0.1c0.1,-0.1,0.1,-0.1,0.1,-0.1c0.1,-0.1,0.1,-0.1,0.1,-0.1l-0.1,-1.5c0,-0.1,0,-0.1,-0.1,-0.1c-0.1,-0.1,-0.1,-0.1,-0.1,-0.1c-0.1,-0.1,-0.1,-0.1,-0.1,-0.1c-0.1,0,-0.1,0,-0.2,0h-3.9C52.5,58.8,52.5,58.8,52.5,58.9L52.5,58.9zM57.7,58.9c-0.1,0,-0.1,0.1,-0.1,0.1c-0.1,0.1,-0.1,0.1,-0.1,0.1c-0.1,0,-0.1,0.1,-0.1,0.1l0.1,1.5c0,0.1,0,0.1,0.1,0.1c0.1,0.1,0.1,0.1,0.1,0.1c0.1,0.1,0.1,0.1,0.1,0.1c0.1,0,0.1,0,0.2,0h3.9c0.1,0,0.1,0,0.2,0c0.1,0,0.1,-0.1,0.1,-0.1c0.1,-0.1,0.1,-0.1,0.1,-0.1c0.1,-0.1,0.1,-0.1,0.1,-0.1l-0.1,-1.5c0,-0.1,0,-0.1,-0.1,-0.1c-0.1,-0.1,-0.1,-0.1,-0.1,-0.1c-0.1,-0.1,-0.1,-0.1,-0.1,-0.1c-0.1,0,-0.1,0,-0.2,0h-3.9C57.7,58.8,57.7,58.8,57.7,58.9L57.7,58.9zM62.8,58.9c-0.1,0,-0.1,0.1,-0.1,0.1c-0.1,0.1,-0.1,0.1,-0.1,0.1c-0.1,0.1,-0.1,0.1,-0.1,0.1l0.1,1.5c0,0.1,0,0.1,0.1,0.1c0.1,0.1,0.1,0.1,0.1,0.1c0.1,0.1,0.1,0.1,0.1,0.1c0.1,0,0.1,0,0.2,0h3.9c0.1,0,0.1,0,0.2,0s0.1,-0.1,0.1,-0.1c0.1,-0.1,0.1,-0.1,0.1,-0.1c0.1,-0.1,0.1,-0.1,0.1,-0.1l-0.2,-1.5c0,-0.1,-0.1,-0.1,-0.1,-0.1c-0.1,-0.1,-0.1,-0.1,-0.1,-0.1c-0.1,-0.1,-0.1,-0.1,-0.1,-0.1c-0.1,0,-0.1,0,-0.2,0H63C63,58.8,62.9,58.8,62.8,58.9L62.8,58.9zM68.1,58.9c-0.1,0,-0.1,0.1,-0.1,0.1c-0.1,0.1,-0.1,0.1,-0.1,0.1c-0.1,0,-0.1,0.1,-0.1,0.1l0.2,1.5c0,0.1,0.1,0.1,0.1,0.1c0.1,0.1,0.1,0.1,0.1,0.1c0.1,0.1,0.1,0.1,0.1,0.1c0.1,0,0.1,0,0.2,0H72.3c0.1,0,0.1,0,0.2,0s0.1,-0.1,0.1,-0.1c0.1,-0.1,0.1,-0.1,0.1,-0.1c0.1,0,0.1,-0.1,0.1,-0.1l-0.2,-1.5c0,-0.1,-0.1,-0.1,-0.1,-0.1c-0.1,-0.1,-0.1,-0.1,-0.1,-0.1c-0.1,-0.1,-0.1,-0.1,-0.1,-0.1c-0.1,0,-0.1,0,-0.2,0h-3.9C68.2,58.8,68.1,58.8,68.1,58.9L68.1,58.9zM73.3,58.9c-0.1,0,-0.1,0.1,-0.1,0.1c-0.1,0.1,-0.1,0.1,-0.1,0.1c-0.1,0,-0.1,0.1,-0.1,0.1l0.2,1.5c0,0.1,0.1,0.1,0.1,0.1c0.1,0.1,0.1,0.1,0.1,0.1c0.1,0.1,0.1,0.1,0.1,0.1c0.1,0,0.1,0,0.2,0h3.9c0.1,0,0.1,0,0.2,0s0.1,-0.1,0.1,-0.1c0.1,-0.1,0.1,-0.1,0.1,-0.1c0.1,-0.1,0.1,-0.1,0.1,-0.1l-0.3,-1.5c0,-0.1,-0.1,-0.1,-0.1,-0.1c-0.1,-0.1,-0.1,-0.1,-0.1,-0.1c-0.1,-0.1,-0.1,-0.1,-0.1,-0.1c-0.1,0,-0.1,0,-0.2,0h-3.9C73.4,58.8,73.3,58.8,73.3,58.9L73.3,58.9zM85.5,58.9c-0.1,0,-0.1,0,-0.2,0h-6.7c-0.1,0,-0.1,0,-0.2,0s-0.1,0.1,-0.1,0.1c-0.1,0.1,-0.1,0.1,-0.1,0.1c-0.1,0.1,-0.1,0.1,-0.1,0.1l0.2,1.5c0,0.1,0.1,0.1,0.1,0.1c0.1,0.1,0.1,0.1,0.1,0.1c0.1,0.1,0.1,0.1,0.1,0.1c0.1,0,0.1,0,0.2,0h6.7c0.1,0,0.1,0,0.2,0s0.1,-0.1,0.1,-0.1c0.1,-0.1,0.1,-0.1,0.1,-0.1c0.1,-0.1,0.1,-0.1,0.1,-0.1l-0.3,-1.5c0,-0.1,-0.1,-0.1,-0.1,-0.1c-0.1,-0.1,-0.1,-0.1,-0.1,-0.1C85.5,58.9,85.5,58.9,85.5,58.9L85.5,58.9zM16.7,62.9c0.1,0.1,0.1,0.1,0.1,0.1c0.1,0,0.1,0,0.2,0h4c0.1,0,0.1,0,0.2,0s0.1,-0.1,0.1,-0.1c0.1,-0.1,0.1,-0.1,0.1,-0.1c0.1,-0.1,0.1,-0.1,0.1,-0.1l0.3,-1.5c0,-0.1,0,-0.1,-0.1,-0.1c-0.1,-0.1,-0.1,-0.1,-0.1,-0.1c-0.1,-0.1,-0.1,-0.1,-0.1,-0.1c-0.1,0,-0.1,0,-0.2,0H17.2c-0.1,0,-0.1,0,-0.2,0s-0.1,0.1,-0.1,0.1c-0.1,0.1,-0.1,0.1,-0.1,0.1c-0.1,0.1,-0.1,0.1,-0.1,0.1l-0.3,1.5c0,0.1,0,0.1,0.1,0.1S16.6,62.9,16.7,62.9L16.7,62.9zM7.4,62.9c0.1,0.1,0.1,0.1,0.1,0.1c0.1,0,0.1,0,0.2,0h7.7c0.1,0,0.1,0,0.2,0s0.1,-0.1,0.1,-0.1c0.1,-0.1,0.1,-0.1,0.1,-0.1c0.1,-0.1,0.1,-0.1,0.1,-0.1l0.3,-1.5c0,-0.1,0,-0.1,-0.1,-0.1c-0.1,-0.1,-0.1,-0.1,-0.1,-0.1c-0.1,-0.1,-0.1,-0.1,-0.1,-0.1c-0.1,0,-0.1,0,-0.2,0h-7.6c-0.1,0,-0.1,0,-0.2,0c-0.1,0,-0.1,0.1,-0.1,0.1c-0.1,0.1,-0.1,0.1,-0.1,0.1c-0.1,0.1,-0.1,0.1,-0.1,0.1l-0.4,1.5c0,0.1,0,0.1,0,0.1C7.4,62.9,7.4,62.9,7.4,62.9L7.4,62.9zM22,62.9c0.1,0.1,0.1,0.1,0.1,0.1c0.1,0,0.1,0,0.2,0h4c0.1,0,0.1,0,0.2,0c0.1,0,0.1,-0.1,0.1,-0.1c0.1,-0.1,0.1,-0.1,0.1,-0.1c0.1,-0.1,0.1,-0.1,0.1,-0.1l0.2,-1.5c0,-0.1,0,-0.1,-0.1,-0.1c-0.1,-0.1,-0.1,-0.1,-0.1,-0.1c-0.1,-0.1,-0.1,-0.1,-0.1,-0.1s-0.1,0,-0.2,0H22.5c-0.1,0,-0.1,0,-0.2,0c-0.1,0,-0.1,0.1,-0.1,0.1c-0.1,0.1,-0.1,0.1,-0.1,0.1c-0.1,0.1,-0.1,0.1,-0.1,0.1l-0.3,1.5c0,0.1,0,0.1,0.1,0.1C21.9,62.9,21.9,62.9,22,62.9zM27.3,62.9c0.1,0.1,0.1,0.1,0.1,0.1c0.1,0,0.1,0,0.2,0h4c0.1,0,0.1,0,0.2,0c0.1,0,0.1,-0.1,0.1,-0.1c0.1,-0.1,0.1,-0.1,0.1,-0.1c0.1,-0.1,0.1,-0.1,0.1,-0.1l0.2,-1.5c0,-0.1,0,-0.1,-0.1,-0.1c-0.1,-0.1,-0.1,-0.1,-0.1,-0.1c-0.1,-0.1,-0.1,-0.1,-0.1,-0.1c-0.1,0,-0.1,0,-0.2,0h-4c-0.1,0,-0.1,0,-0.2,0c-0.1,0,-0.1,0.1,-0.1,0.1c-0.1,0.1,-0.1,0.1,-0.1,0.1c-0.1,0.1,-0.1,0.1,-0.1,0.1l-0.2,1.5c0,0.1,0,0.1,0.1,0.1C27.2,62.9,27.3,62.9,27.3,62.9L27.3,62.9zM37,62.9c0.1,0,0.1,-0.1,0.1,-0.1c0.1,-0.1,0.1,-0.1,0.1,-0.1c0.1,-0.1,0.1,-0.1,0.1,-0.1l0.1,-1.5c0,-0.1,0,-0.1,-0.1,-0.1c-0.1,-0.1,-0.1,-0.1,-0.1,-0.1c-0.1,-0.1,-0.1,-0.1,-0.1,-0.1c-0.1,0,-0.1,0,-0.2,0h-4c-0.1,0,-0.1,0,-0.2,0s-0.1,0.1,-0.1,0.1c-0.1,0.1,-0.1,0.1,-0.1,0.1c-0.1,0.1,-0.1,0.1,-0.1,0.1l-0.2,1.5c0,0.1,0,0.1,0.1,0.1c0.1,0.1,0.1,0.1,0.1,0.1c0.1,0.1,0.1,0.1,0.1,0.1c0.1,0,0.1,0,0.2,0h4C36.9,63,37,63,37,62.9zM42.4,62.9c0.1,0,0.1,-0.1,0.1,-0.1c0.1,-0.1,0.1,-0.1,0.1,-0.1c0.1,-0.1,0.1,-0.1,0.1,-0.1l0.1,-1.5c0,-0.1,0,-0.1,-0.1,-0.1c-0.1,-0.1,-0.1,-0.1,-0.1,-0.1c-0.1,-0.1,-0.1,-0.1,-0.1,-0.1c-0.1,0,-0.1,0,-0.2,0h-4c-0.1,0,-0.1,0,-0.2,0c-0.1,0,-0.1,0.1,-0.1,0.1c-0.1,0.1,-0.1,0.1,-0.1,0.1c-0.1,0.1,-0.1,0.1,-0.1,0.1l-0.1,1.5c0,0.1,0,0.1,0.1,0.1c0.1,0.1,0.1,0.1,0.1,0.1c0.1,0.1,0.1,0.1,0.1,0.1c0.1,0,0.1,0,0.2,0H42.1C42.3,63,42.3,63,42.4,62.9L42.4,62.9zM47.7,62.9c0.1,0,0.1,-0.1,0.1,-0.1c0.1,-0.1,0.1,-0.1,0.1,-0.1c0.1,-0.1,0.1,-0.1,0.1,-0.1v-1.5c0,-0.1,0,-0.1,-0.1,-0.1c-0.1,-0.1,-0.1,-0.1,-0.1,-0.1c-0.1,-0.1,-0.1,-0.1,-0.1,-0.1c-0.1,0,-0.1,0,-0.2,0H43.5c-0.1,0,-0.1,0,-0.2,0c-0.1,0,-0.1,0.1,-0.1,0.1c-0.1,0.1,-0.1,0.1,-0.1,0.1c-0.1,0.1,-0.1,0.1,-0.1,0.1l-0.1,1.5c0,0.1,0,0.1,0.1,0.1c0.1,0.1,0.1,0.1,0.1,0.1c0.1,0.1,0.1,0.1,0.1,0.1c0.1,0,0.1,0,0.2,0h4C47.6,63,47.7,63,47.7,62.9L47.7,62.9zM53,62.9c0.1,0,0.1,-0.1,0.1,-0.1c0.1,-0.1,0.1,-0.1,0.1,-0.1c0.1,-0.1,0.1,-0.1,0.1,-0.1l-0.1,-1.5c0,-0.1,0,-0.1,-0.1,-0.1c-0.1,-0.1,-0.1,-0.1,-0.1,-0.1c-0.1,-0.1,-0.1,-0.1,-0.1,-0.1c-0.1,0,-0.1,0,-0.2,0h-4c-0.1,0,-0.1,0,-0.2,0s-0.1,0.1,-0.1,0.1c-0.1,0.1,-0.1,0.1,-0.1,0.1c-0.1,0.1,-0.1,0.1,-0.1,0.1v1.5c0,0.1,0,0.1,0.1,0.1c0.1,0.1,0.1,0.1,0.1,0.1c0.1,0.1,0.1,0.1,0.1,0.1c0.1,0,0.1,0,0.2,0h4C52.9,63,52.9,63,53,62.9L53,62.9zM58.3,62.9c0.1,0,0.1,-0.1,0.1,-0.1c0.1,-0.1,0.1,-0.1,0.1,-0.1c0.1,-0.1,0.1,-0.1,0.1,-0.1l-0.1,-1.5c0,-0.1,0,-0.1,-0.1,-0.1c-0.1,-0.1,-0.1,-0.1,-0.1,-0.1c-0.1,-0.1,-0.1,-0.1,-0.1,-0.1c-0.1,0,-0.1,0,-0.2,0h-4c-0.1,0,-0.1,0,-0.2,0s-0.1,0.1,-0.1,0.1c-0.1,0.1,-0.1,0.1,-0.1,0.1c-0.1,0.1,-0.1,0.1,-0.1,0.1l0.1,1.5c0,0.1,0,0.1,0.1,0.1c0.1,0.1,0.1,0.1,0.1,0.1c0.1,0.1,0.1,0.1,0.1,0.1c0.1,0,0.1,0,0.2,0h4C58.2,63,58.3,63,58.3,62.9L58.3,62.9zM63.6,62.9c0.1,0,0.1,-0.1,0.1,-0.1c0.1,-0.1,0.1,-0.1,0.1,-0.1c0.1,-0.1,0.1,-0.1,0.1,-0.1l-0.1,-1.5c0,-0.1,0,-0.1,-0.1,-0.1c-0.1,-0.1,-0.1,-0.1,-0.1,-0.1c-0.1,-0.1,-0.1,-0.1,-0.1,-0.1c-0.1,0,-0.1,0,-0.2,0h-4c-0.1,0,-0.1,0,-0.2,0s-0.1,0.1,-0.1,0.1c-0.1,0.1,-0.1,0.1,-0.1,0.1c-0.1,0.1,-0.1,0.1,-0.1,0.1l0.1,1.5c0,0.1,0,0.1,0.1,0.1c0.1,0.1,0.1,0.1,0.1,0.1c0.1,0.1,0.1,0.1,0.1,0.1c0.1,0,0.1,0,0.2,0H63.5C63.5,63,63.6,63,63.6,62.9zM68.9,62.9c0.1,0,0.1,-0.1,0.1,-0.1c0.1,-0.1,0.1,-0.1,0.1,-0.1c0.1,-0.1,0.1,-0.1,0.1,-0.1l-0.2,-1.5c0,-0.1,-0.1,-0.1,-0.1,-0.1c-0.1,-0.1,-0.1,-0.1,-0.1,-0.1c-0.1,-0.1,-0.1,-0.1,-0.1,-0.1c-0.1,0,-0.1,0,-0.2,0h-4c-0.1,0,-0.1,0,-0.2,0s-0.1,0.1,-0.1,0.1c-0.1,0.1,-0.1,0.1,-0.1,0.1c-0.1,0.1,-0.1,0.1,-0.1,0.1l0.1,1.5c0,0.1,0.1,0.1,0.1,0.1c0.1,0.1,0.1,0.1,0.1,0.1c0.1,0.1,0.1,0.1,0.1,0.1c0.1,0,0.1,0,0.2,0h4C68.9,63,68.9,63,68.9,62.9L68.9,62.9zM74.3,62.9c0.1,0,0.1,-0.1,0.1,-0.1c0.1,-0.1,0.1,-0.1,0.1,-0.1c0.1,-0.1,0.1,-0.1,0.1,-0.1l-0.2,-1.5c0,-0.1,-0.1,-0.1,-0.1,-0.1c-0.1,-0.1,-0.1,-0.1,-0.1,-0.1c-0.1,-0.1,-0.1,-0.1,-0.1,-0.1c-0.1,0,-0.1,0,-0.2,0h-4c-0.1,0,-0.1,0,-0.2,0s-0.1,0.1,-0.1,0.1c-0.1,0.1,-0.1,0.1,-0.1,0.1c-0.1,0.1,-0.1,0.1,-0.1,0.1l0.2,1.5c0,0.1,0.1,0.1,0.1,0.1c0.1,0.1,0.1,0.1,0.1,0.1c0.1,0.1,0.1,0.1,0.1,0.1c0.1,0,0.1,0,0.2,0H74.1C74.2,63,74.2,63,74.3,62.9L74.3,62.9zM86.4,62.9c0.1,0,0.1,-0.1,0.1,-0.1c0.1,-0.1,0.1,-0.1,0.1,-0.1c0.1,-0.1,0.1,-0.1,0.1,-0.1l-0.4,-1.5c0,-0.1,-0.1,-0.1,-0.1,-0.1c-0.1,-0.1,-0.1,-0.1,-0.1,-0.1c-0.1,-0.1,-0.1,-0.1,-0.1,-0.1c-0.1,0,-0.1,0,-0.2,0h-10.6c-0.1,0,-0.1,0,-0.2,0s-0.1,0.1,-0.1,0.1c-0.1,0.1,-0.1,0.1,-0.1,0.1c-0.1,0.1,-0.1,0.1,-0.1,0.1l0.2,1.5c0,0.1,0.1,0.1,0.1,0.1c0.1,0.1,0.1,0.1,0.1,0.1c0.1,0.1,0.1,0.1,0.1,0.1c0.1,0,0.1,0,0.2,0h10.7C86.2,63,86.3,63,86.4,62.9L86.4,62.9zM24.4,63.4c-0.1,-0.1,-0.1,-0.1,-0.1,-0.1c-0.1,-0.1,-0.1,-0.1,-0.1,-0.1s-0.1,0,-0.2,0h-4c-0.1,0,-0.1,0,-0.2,0s-0.1,0.1,-0.1,0.1c-0.1,0.1,-0.1,0.1,-0.1,0.1c-0.1,0,-0.1,0.1,-0.1,0.1l-0.3,1.6c0,0.1,0,0.1,0.1,0.1c0.1,0.1,0.1,0.1,0.1,0.1c0.1,0.1,0.1,0.1,0.1,0.1c0.1,0,0.1,0,0.2,0h4.1c0.1,0,0.1,0,0.2,0c0.1,0,0.1,-0.1,0.1,-0.1c0.1,-0.1,0.1,-0.1,0.1,-0.1c0.1,-0.1,0.1,-0.1,0.1,-0.1l0.2,-1.6C24.4,63.4,24.4,63.4,24.4,63.4zM18.7,65l0.3,-1.6c0,-0.1,0,-0.1,-0.1,-0.1c-0.1,-0.1,-0.1,-0.1,-0.1,-0.1c-0.1,-0.1,-0.1,-0.1,-0.1,-0.1c-0.1,0,-0.1,0,-0.2,0H7.7c-0.1,0,-0.1,0,-0.2,0s-0.1,0.1,-0.2,0.1c-0.1,0.1,-0.1,0.1,-0.1,0.1c-0.1,0.1,-0.1,0.1,-0.1,0.1l-0.4,1.6c0,0.1,0,0.1,0,0.1c0,0.1,0.1,0.1,0.1,0.1c0.1,0.1,0.1,0.1,0.1,0.1s0.1,0,0.2,0h11c0.1,0,0.1,0,0.2,0s0.1,-0.1,0.2,-0.1c0.1,-0.1,0.1,-0.1,0.1,-0.1C18.7,65.1,18.7,65,18.7,65L18.7,65zM29.7,63.3c-0.1,-0.1,-0.1,-0.1,-0.1,-0.1c-0.1,0,-0.1,0,-0.2,0h-4c-0.1,0,-0.1,0,-0.2,0c-0.1,0,-0.1,0.1,-0.1,0.1c-0.1,0.1,-0.1,0.1,-0.1,0.1c-0.1,0.1,-0.1,0.1,-0.1,0.1l-0.2,1.6c0,0.1,0,0.1,0.1,0.1c0.1,0.1,0.1,0.1,0.1,0.1c0.1,0.1,0.1,0.1,0.1,0.1c0.1,0,0.1,0,0.2,0h4.1c0.1,0,0.1,0,0.2,0c0.1,0,0.1,-0.1,0.1,-0.1c0.1,-0.1,0.1,-0.1,0.1,-0.1c0.1,-0.1,0.1,-0.1,0.1,-0.1l0.2,-1.6c0,-0.1,0,-0.1,-0.1,-0.1C29.7,63.3,29.7,63.3,29.7,63.3L29.7,63.3zM23.6,65.6c-0.1,-0.1,-0.1,-0.1,-0.1,-0.1c-0.1,0,-0.1,0,-0.2,0h-4c-0.1,0,-0.1,0,-0.2,0c-0.1,0,-0.1,0.1,-0.2,0.1c-0.1,0.1,-0.1,0.1,-0.1,0.1c-0.1,0.1,-0.1,0.1,-0.1,0.1l-0.3,1.7c0,0.1,0,0.1,0.1,0.1c0.1,0.1,0.1,0.1,0.1,0.1c0.1,0.1,0.1,0.1,0.1,0.1c0.1,0,0.1,0,0.2,0h4.1c0.1,0,0.1,0,0.2,0c0.1,0,0.1,-0.1,0.2,-0.1c0.1,-0.1,0.1,-0.1,0.1,-0.1c0.1,-0.1,0.1,-0.1,0.1,-0.1l0.3,-1.7c0,-0.1,0,-0.1,-0.1,-0.1C23.7,65.6,23.6,65.6,23.6,65.6L23.6,65.6zM17.9,65.6c-0.1,-0.1,-0.1,-0.1,-0.1,-0.1c-0.1,0,-0.1,0,-0.2,0H13.6c-0.1,0,-0.1,0,-0.2,0c-0.1,0,-0.1,0.1,-0.2,0.1c-0.1,0.1,-0.1,0.1,-0.1,0.1c-0.1,0.1,-0.1,0.1,-0.1,0.1l-0.3,1.7c0,0.1,0,0.1,0.1,0.1c0.1,0.1,0.1,0.1,0.1,0.1c0.1,0.1,0.1,0.1,0.1,0.1c0.1,0,0.1,0,0.2,0h4.1c0.1,0,0.1,0,0.2,0c0.1,0,0.1,-0.1,0.2,-0.1c0.1,-0.1,0.1,-0.1,0.1,-0.1c0.1,-0.1,0.1,-0.1,0.1,-0.1l0.3,-1.7c0,-0.1,0,-0.1,-0.1,-0.1C18,65.6,18,65.6,17.9,65.6zM29.2,65.6c-0.1,-0.1,-0.1,-0.1,-0.1,-0.1c-0.1,0,-0.1,0,-0.2,0h-4.1c-0.1,0,-0.1,0,-0.2,0c-0.1,0,-0.1,0.1,-0.1,0.1c-0.1,0.1,-0.1,0.1,-0.1,0.1c-0.1,0.1,-0.1,0.1,-0.1,0.1l-0.2,1.7c0,0.1,0,0.1,0.1,0.1c0.1,0.1,0.1,0.1,0.1,0.1c0.1,0.1,0.1,0.1,0.1,0.1c0.1,0,0.1,0,0.2,0h4.1c0.1,0,0.1,0,0.2,0c0.1,0,0.1,-0.1,0.1,-0.1c0.1,-0.1,0.1,-0.1,0.1,-0.1c0.1,-0.1,0.1,-0.1,0.1,-0.1l0.2,-1.7c0,-0.1,0,-0.1,-0.1,-0.1C29.3,65.6,29.3,65.6,29.2,65.6L29.2,65.6zM30.3,65.1c0.1,0.1,0.1,0.1,0.1,0.1c0.1,0,0.1,0,0.2,0h4c0.1,0,0.1,0,0.2,0c0.1,0,0.1,-0.1,0.1,-0.1c0.1,-0.1,0.1,-0.1,0.1,-0.1c0.1,-0.1,0.1,-0.1,0.1,-0.1l0.1,-1.6c0,-0.1,0,-0.1,-0.1,-0.1c-0.1,-0.1,-0.1,-0.1,-0.1,-0.1c-0.1,-0.1,-0.1,-0.1,-0.1,-0.1c-0.1,0,-0.1,0,-0.2,0h-4c-0.1,0,-0.1,0,-0.2,0c-0.1,0,-0.1,0.1,-0.1,0.1c-0.1,0.1,-0.1,0.1,-0.1,0.1c-0.1,0.1,-0.1,0.1,-0.1,0.1l-0.2,1.6c0,0.1,0,0.1,0.1,0.1C30.1,65.1,30.2,65.1,30.3,65.1L30.3,65.1zM35.6,65.1c0.1,0.1,0.1,0.1,0.1,0.1c0.1,0,0.1,0,0.2,0h4.1c0.1,0,0.1,0,0.2,0c0.1,0,0.1,-0.1,0.1,-0.1c0.1,-0.1,0.1,-0.1,0.1,-0.1c0.1,-0.1,0.1,-0.1,0.1,-0.1l0.1,-1.6c0,-0.1,0,-0.1,-0.1,-0.1c-0.1,-0.1,-0.1,-0.1,-0.1,-0.1s-0.1,-0.1,-0.1,-0.1c-0.1,0,-0.1,0,-0.2,0h-4c-0.1,0,-0.1,0,-0.2,0c-0.1,0,-0.1,0.1,-0.1,0.1c-0.1,0.1,-0.1,0.1,-0.1,0.1c-0.1,0.1,-0.1,0.1,-0.1,0.1l-0.1,1.6c0,0.1,0,0.1,0.1,0.1C35.6,65.1,35.6,65.1,35.6,65.1L35.6,65.1zM41,65.1c0.1,0.1,0.1,0.1,0.1,0.1c0.1,0,0.1,0,0.2,0h4.1c0.1,0,0.1,0,0.2,0s0.1,-0.1,0.1,-0.1c0.1,-0.1,0.1,-0.1,0.1,-0.1c0.1,-0.1,0.1,-0.1,0.1,-0.1l0.1,-1.6c0,-0.1,0,-0.1,-0.1,-0.1c-0.1,-0.1,-0.1,-0.1,-0.1,-0.1c-0.1,-0.1,-0.1,-0.1,-0.1,-0.1c-0.1,0,-0.1,0,-0.2,0h-4c-0.1,0,-0.1,0,-0.2,0c-0.1,0,-0.1,0.1,-0.1,0.1c-0.1,0.1,-0.1,0.1,-0.1,0.1c-0.1,0.1,-0.1,0.1,-0.1,0.1l-0.1,1.6c0,0.1,0,0.1,0.1,0.1C40.9,65.1,40.9,65.1,41,65.1zM46.4,65.1c0.1,0.1,0.1,0.1,0.1,0.1c0.1,0,0.1,0,0.2,0h4.1c0.1,0,0.1,0,0.2,0s0.1,-0.1,0.1,-0.1c0.1,-0.1,0.1,-0.1,0.1,-0.1c0.1,-0.1,0.1,-0.1,0.1,-0.1l-0.1,-1.6c0,-0.1,0,-0.1,-0.1,-0.1c-0.1,-0.1,-0.1,-0.1,-0.1,-0.1c-0.1,-0.1,-0.1,-0.1,-0.1,-0.1c-0.1,0,-0.1,0,-0.2,0h-4c-0.1,0,-0.1,0,-0.2,0s-0.1,0.1,-0.1,0.1c-0.1,0.1,-0.1,0.1,-0.1,0.1c-0.1,0.1,-0.1,0.1,-0.1,0.1l-0.1,1.6c0,0.1,0,0.1,0.1,0.1S46.3,65.1,46.4,65.1L46.4,65.1zM51.7,65.1c0.1,0.1,0.1,0.1,0.1,0.1c0,0.1,0.1,0.1,0.1,0.1c0.1,0,0.1,0,0.2,0h4.1c0.1,0,0.1,0,0.2,0s0.1,-0.1,0.1,-0.1c0.1,-0.1,0.1,-0.1,0.1,-0.1c0.1,-0.1,0.1,-0.1,0.1,-0.1l-0.1,-1.6c0,-0.1,0,-0.1,-0.1,-0.1c-0.1,-0.1,-0.1,-0.1,-0.1,-0.1c-0.1,-0.1,-0.1,-0.1,-0.1,-0.1c-0.1,0,-0.1,0,-0.2,0h-4c-0.1,0,-0.1,0,-0.2,0s-0.1,0.1,-0.1,0.1c-0.1,0.1,-0.1,0.1,-0.1,0.1c-0.1,0.1,-0.1,0.1,-0.1,0.1l0.1,1.6C51.6,65,51.7,65.1,51.7,65.1L51.7,65.1zM57.1,65.1c0.1,0.1,0.1,0.1,0.1,0.1c0.1,0.1,0.1,0.1,0.1,0.1c0.1,0,0.1,0,0.2,0h4c0.1,0,0.1,0,0.2,0s0.1,-0.1,0.1,-0.1c0.1,-0.1,0.1,-0.1,0.1,-0.1c0.1,-0.1,0.1,-0.1,0.1,-0.1l-0.1,-1.6c0,-0.1,0,-0.1,-0.1,-0.1c-0.1,-0.1,-0.1,-0.1,-0.1,-0.1c-0.1,-0.1,-0.1,-0.1,-0.1,-0.1c-0.1,0,-0.1,0,-0.2,0h-4c-0.1,0,-0.1,0,-0.2,0s-0.1,0.1,-0.1,0.1c-0.1,0.1,-0.1,0.1,-0.1,0.1c-0.1,0.1,-0.1,0.1,-0.1,0.1l0.1,1.6C57,65,57,65.1,57.1,65.1L57.1,65.1L57.1,65.1zM62.4,65.1c0.1,0.1,0.1,0.1,0.1,0.1c0.1,0.1,0.1,0.1,0.1,0.1c0.1,0,0.1,0,0.2,0h4.1c0.1,0,0.1,0,0.2,0s0.1,-0.1,0.1,-0.1c0.1,-0.1,0.1,-0.1,0.1,-0.1c0.1,-0.1,0.1,-0.1,0.1,-0.1l-0.2,-1.6c0,-0.1,-0.1,-0.1,-0.1,-0.1c-0.1,-0.1,-0.1,-0.1,-0.1,-0.1c-0.1,-0.1,-0.1,-0.1,-0.1,-0.1c-0.1,0,-0.1,0,-0.2,0h-4c-0.1,0,-0.1,0,-0.2,0s-0.1,0.1,-0.1,0.1s-0.1,0.1,-0.1,0.1c-0.1,0.1,-0.1,0.1,-0.1,0.1l0.1,1.6C62.4,65,62.4,65.1,62.4,65.1zM67.8,65.1c0.1,0.1,0.1,0.1,0.1,0.1c0.1,0.1,0.1,0.1,0.1,0.1c0.1,0,0.1,0,0.2,0h4c0.1,0,0.1,0,0.2,0s0.1,-0.1,0.1,-0.1c0.1,-0.1,0.1,-0.1,0.1,-0.1c0.1,-0.1,0.1,-0.1,0.1,-0.1l-0.2,-1.6c0,-0.1,-0.1,-0.1,-0.1,-0.1c-0.1,-0.1,-0.1,-0.1,-0.1,-0.1c-0.1,-0.1,-0.1,-0.1,-0.1,-0.1c-0.1,0,-0.1,0,-0.2,0h-4c-0.1,0,-0.1,0,-0.2,0s-0.1,0.1,-0.1,0.1c-0.1,0.1,-0.1,0.1,-0.1,0.1c-0.1,0.1,-0.1,0.1,-0.1,0.1l0.2,1.6C67.8,65,67.8,65.1,67.8,65.1L67.8,65.1zM73.3,65.1c0.1,0.1,0.1,0.1,0.1,0.1c0.1,0.1,0.1,0.1,0.1,0.1c0.1,0,0.1,0,0.2,0h7.4c0.1,0,0.1,0,0.2,0s0.1,-0.1,0.1,-0.1c0.1,0,0.1,-0.1,0.1,-0.1c0.1,-0.1,0.1,-0.1,0.1,-0.1l-0.3,-1.6c0,-0.1,-0.1,-0.1,-0.1,-0.1c-0.1,-0.1,-0.1,-0.1,-0.1,-0.1c-0.1,-0.1,-0.1,-0.1,-0.1,-0.1c-0.1,0,-0.1,0,-0.2,0h-7.4c-0.1,0,-0.1,0,-0.2,0s-0.1,0.1,-0.1,0.1c-0.1,0.1,-0.1,0.1,-0.1,0.1c-0.1,0.1,-0.1,0.1,-0.1,0.1l0.2,1.6C73.2,65,73.2,65.1,73.3,65.1L73.3,65.1zM90.7,58.8h-3.9c-0.1,0,-0.1,0,-0.2,0s-0.1,0.1,-0.1,0.1c-0.1,0.1,-0.1,0.1,-0.1,0.1c-0.1,0.1,-0.1,0.1,-0.1,0.1l0.3,1.5c0,0.1,0.1,0.1,0.1,0.1c0.1,0.1,0.1,0.1,0.1,0.1c0.1,0.1,0.1,0.1,0.1,0.1c0.1,0,0.1,0,0.2,0h3.9c0.1,0,0.1,0,0.2,0c0.1,0,0.1,-0.1,0.1,-0.1c0.1,-0.1,0.1,-0.1,0.1,-0.1c0,-0.1,0.1,-0.1,0,-0.1l-0.4,-1.5c0,-0.1,-0.1,-0.1,-0.1,-0.1c-0.1,-0.1,-0.1,-0.1,-0.1,-0.1c-0.1,-0.1,-0.1,-0.1,-0.1,-0.1S90.7,58.8,90.7,58.8L90.7,58.8zM91.3,61.1c-0.1,0,-0.1,0,-0.2,0h-4c-0.1,0,-0.1,0,-0.2,0c-0.1,0,-0.1,0.1,-0.1,0.1c-0.1,0.1,-0.1,0.1,-0.1,0.1c-0.1,0.1,-0.1,0.1,-0.1,0.1l0.3,1.5c0,0.1,0.1,0.1,0.1,0.1c0.1,0.1,0.1,0.1,0.1,0.1c0.1,0.1,0.1,0.1,0.2,0.1s0.1,0,0.2,0h4c0.1,0,0.1,0,0.2,0c0.1,0,0.1,-0.1,0.1,-0.1c0.1,-0.1,0.1,-0.1,0.1,-0.1c0.1,-0.1,0.1,-0.1,0,-0.1l-0.4,-1.5c0,-0.1,-0.1,-0.1,-0.1,-0.1c-0.1,-0.1,-0.1,-0.1,-0.1,-0.1C91.3,61.1,91.3,61.1,91.3,61.1L91.3,61.1zM88.1,65.2H92.1c0.1,0,0.1,0,0.2,0c0.1,0,0.1,-0.1,0.1,-0.1c0.1,-0.1,0.1,-0.1,0.1,-0.1c0.1,-0.1,0.1,-0.1,0,-0.1l-0.4,-1.6c0,-0.1,-0.1,-0.1,-0.1,-0.1c-0.1,-0.1,-0.1,-0.1,-0.1,-0.1c-0.1,-0.1,-0.1,-0.1,-0.2,-0.1c-0.1,0,-0.1,0,-0.2,0H87.6c-0.1,0,-0.1,0,-0.2,0s-0.1,0.1,-0.1,0.1c-0.1,0.1,-0.1,0.1,-0.1,0.1c-0.1,0.1,-0.1,0.1,-0.1,0.1l0.3,1.6c0,0.1,0.1,0.1,0.1,0.1c0.1,0.1,0.1,0.1,0.1,0.1c0.1,0.1,0.1,0.1,0.2,0.1S88,65.2,88.1,65.2L88.1,65.2zM93,67.3l-0.4,-1.7c0,-0.1,-0.1,-0.1,-0.1,-0.1c-0.1,-0.1,-0.1,-0.1,-0.1,-0.1c-0.1,-0.1,-0.1,-0.1,-0.2,-0.1c-0.1,0,-0.1,0,-0.2,0h-4.1c-0.1,0,-0.1,0,-0.2,0s-0.1,0.1,-0.1,0.1c-0.1,0.1,-0.1,0.1,-0.1,0.1c-0.1,0.1,-0.1,0.1,-0.1,0.1l0.3,1.7c0,0.1,0.1,0.1,0.1,0.1c0.1,0.1,0.1,0.1,0.1,0.1c0.1,0.1,0.1,0.1,0.2,0.1s0.1,0,0.2,0H92.6c0.1,0,0.1,0,0.2,0c0.1,0,0.1,-0.1,0.1,-0.1c0.1,-0.1,0.1,-0.1,0.1,-0.1C93,67.4,93,67.4,93,67.3zM82.4,65.2c0.1,0,0.1,0,0.2,0h4c0.1,0,0.1,0,0.2,0s0.1,-0.1,0.1,-0.1c0.1,-0.1,0.1,-0.1,0.1,-0.1c0.1,-0.1,0.1,-0.1,0.1,-0.1l-0.3,-1.6c0,-0.1,-0.1,-0.1,-0.1,-0.1c-0.1,-0.1,-0.1,-0.1,-0.1,-0.1c-0.1,-0.1,-0.1,-0.1,-0.1,-0.1c-0.1,0,-0.1,0,-0.2,0h-4c-0.1,0,-0.1,0,-0.2,0s-0.1,0.1,-0.1,0.1c-0.1,0.1,-0.1,0.1,-0.1,0.1c-0.1,0.1,-0.1,0.1,-0.1,0.1l0.3,1.6c0,0.1,0.1,0.1,0.1,0.1c0.1,0.1,0.1,0.1,0.1,0.1C82.3,65.1,82.4,65.1,82.4,65.2zM87.1,65.6c-0.1,-0.1,-0.1,-0.1,-0.1,-0.1c-0.1,-0.1,-0.1,-0.1,-0.2,-0.1c-0.1,0,-0.1,0,-0.2,0h-4c-0.1,0,-0.1,0,-0.2,0s-0.1,0.1,-0.1,0.1c-0.1,0.1,-0.1,0.1,-0.1,0.1c-0.1,0.1,-0.1,0.1,-0.1,0.1l0.3,1.7c0,0.1,0.1,0.1,0.1,0.1c0.1,0.1,0.1,0.1,0.1,0.1c0.1,0.1,0.1,0.1,0.2,0.1s0.1,0,0.2,0h4.1c0.1,0,0.1,0,0.2,0s0.1,-0.1,0.1,-0.1c0.1,-0.1,0.1,-0.1,0.1,-0.1c0.1,-0.1,0.1,-0.1,0.1,-0.1l-0.3,-1.7C87.1,65.6,87.1,65.6,87.1,65.6L87.1,65.6zM81.5,65.6c-0.1,-0.1,-0.1,-0.1,-0.1,-0.1c-0.1,-0.1,-0.1,-0.1,-0.2,-0.1s-0.1,0,-0.2,0h-4c-0.1,0,-0.1,0,-0.2,0s-0.1,0.1,-0.1,0.1c-0.1,0.1,-0.1,0.1,-0.1,0.1c-0.1,0.1,-0.1,0.1,-0.1,0.1l0.2,1.7c0,0.1,0.1,0.1,0.1,0.1c0.1,0.1,0.1,0.1,0.1,0.1c0.1,0.1,0.1,0.1,0.2,0.1s0.1,0,0.2,0h4.1c0.1,0,0.1,0,0.2,0s0.1,-0.1,0.1,-0.1c0.1,-0.1,0.1,-0.1,0.1,-0.1c0.1,0,0.1,-0.1,0.1,-0.1l-0.3,-1.7C81.5,65.6,81.5,65.6,81.5,65.6L81.5,65.6L81.5,65.6zM69.2,65.6c-0.1,-0.1,-0.1,-0.1,-0.1,-0.1c-0.1,-0.1,-0.1,-0.1,-0.1,-0.1c-0.1,0,-0.1,0,-0.2,0h-4.1c-0.1,0,-0.1,0,-0.2,0s-0.1,0.1,-0.1,0.1c-0.1,0.1,-0.1,0.1,-0.1,0.1c-0.1,0.1,-0.1,0.1,-0.1,0.1l0.2,1.7c0,0.1,0.1,0.1,0.1,0.1c0.1,0.1,0.1,0.1,0.1,0.1c0.1,0.1,0.1,0.1,0.1,0.1c0.1,0,0.1,0,0.2,0H69c0.1,0,0.1,0,0.2,0s0.1,-0.1,0.1,-0.1c0.1,-0.1,0.1,-0.1,0.1,-0.1c0.1,-0.1,0.1,-0.1,0.1,-0.1l-0.2,-1.7C69.3,65.6,69.3,65.6,69.2,65.6L69.2,65.6zM63.7,65.6c-0.1,-0.1,-0.1,-0.1,-0.1,-0.1c-0.1,-0.1,-0.1,-0.1,-0.1,-0.1c-0.1,0,-0.1,0,-0.2,0h-4.1c-0.1,0,-0.1,0,-0.2,0s-0.1,0.1,-0.1,0.1c-0.1,0.1,-0.1,0.1,-0.1,0.1c-0.1,0.1,-0.1,0.1,-0.1,0.1l0.1,1.7c0,0.1,0,0.1,0.1,0.1c0.1,0.1,0.1,0.1,0.1,0.1c0.1,0.1,0.1,0.1,0.1,0.1c0.1,0,0.1,0,0.2,0h4.1c0.1,0,0.1,0,0.2,0s0.1,-0.1,0.1,-0.1c0.1,-0.1,0.1,-0.1,0.1,-0.1c0.1,-0.1,0.1,-0.1,0.1,-0.1l-0.1,-1.7C63.7,65.6,63.7,65.6,63.7,65.6L63.7,65.6zM58,65.6c-0.1,-0.1,-0.1,-0.1,-0.1,-0.1c-0.1,-0.1,-0.1,-0.1,-0.1,-0.1c-0.1,0,-0.1,0,-0.2,0H30.5c-0.1,0,-0.1,0,-0.2,0c-0.1,0,-0.1,0.1,-0.1,0.1c-0.1,0.1,-0.1,0.1,-0.1,0.1c-0.1,0.1,-0.1,0.1,-0.1,0.1l-0.2,1.7c0,0.1,0,0.1,0.1,0.1c0.1,0.1,0.1,0.1,0.1,0.1c0.1,0.1,0.1,0.1,0.1,0.1c0.1,0,0.1,0,0.2,0h27.5c0.1,0,0.1,0,0.2,0s0.1,-0.1,0.1,-0.1c0.1,-0.1,0.1,-0.1,0.1,-0.1c0.1,-0.1,0.1,-0.1,0.1,-0.1l-0.1,-1.7C58.1,65.6,58.1,65.6,58,65.6L58,65.6zM12.3,65.6c-0.1,-0.1,-0.1,-0.1,-0.1,-0.1c-0.1,0,-0.1,0,-0.2,0H7c-0.1,0,-0.1,0,-0.2,0c-0.1,0,-0.1,0.1,-0.2,0.1c-0.1,0.1,-0.1,0.1,-0.1,0.1c-0.1,0.1,-0.1,0.1,-0.1,0.1l-0.4,1.7c0,0.1,0,0.1,0,0.1c0,0.1,0.1,0.1,0.1,0.1s0.1,0.1,0.1,0.1c0.1,0,0.1,0,0.2,0h5.1c0.1,0,0.1,0,0.2,0s0.1,-0.1,0.2,-0.1c0.1,-0.1,0.1,-0.1,0.1,-0.1c0.1,-0.1,0.1,-0.1,0.1,-0.1l0.3,-1.7c0,-0.1,0,-0.1,-0.1,-0.1C12.4,65.6,12.3,65.6,12.3,65.6L12.3,65.6zM75.9,65.6c-0.1,-0.1,-0.1,-0.1,-0.1,-0.1c-0.1,-0.1,-0.1,-0.1,-0.1,-0.1c-0.1,0,-0.1,0,-0.2,0h-5c-0.1,0,-0.1,0,-0.2,0c-0.1,0,-0.1,0.1,-0.1,0.1c-0.1,0.1,-0.1,0.1,-0.1,0.1c-0.1,0.1,-0.1,0.1,-0.1,0.1l0.2,1.7c0,0.1,0.1,0.1,0.1,0.1c0.1,0.1,0.1,0.1,0.1,0.1c0.1,0.1,0.1,0.1,0.1,0.1c0.1,0,0.1,0,0.2,0h5.1c0.1,0,0.1,0,0.2,0s0.1,-0.1,0.1,-0.1c0.1,-0.1,0.1,-0.1,0.1,-0.1c0.1,-0.1,0.1,-0.1,0.1,-0.1l-0.2,-1.7C75.9,65.6,75.9,65.6,75.9,65.6L75.9,65.6zM8.9,56.5c0.1,0,0.1,0.1,0.1,0.1s0.1,0,0.2,0h3.6c0.1,0,0.1,0,0.2,0s0.1,-0.1,0.1,-0.1c0.1,0,0.1,-0.1,0.1,-0.1c0.1,-0.1,0.1,-0.1,0.1,-0.1l0.2,-0.9c0,-0.1,0,-0.1,0,-0.1c0,-0.1,-0.1,-0.1,-0.1,-0.1c-0.1,0,-0.1,-0.1,-0.1,-0.1c-0.1,0,-0.1,0,-0.2,0H9.5c-0.1,0,-0.1,0,-0.2,0s-0.1,0.1,-0.1,0.1c-0.1,0,-0.1,0.1,-0.1,0.1c-0.1,0.1,-0.1,0.1,-0.1,0.1l-0.2,0.9c0,0.1,0,0.1,0,0.1C8.9,56.5,8.9,56.5,8.9,56.5L8.9,56.5zM13.8,56.5c0.1,0,0.1,0.1,0.1,0.1c0.1,0,0.1,0,0.2,0h3.6c0.1,0,0.1,0,0.2,0s0.1,-0.1,0.1,-0.1s0.1,-0.1,0.1,-0.1c0.1,-0.1,0.1,-0.1,0.1,-0.1l0.2,-0.9c0,-0.1,0,-0.1,-0.1,-0.1c0,-0.1,-0.1,-0.1,-0.1,-0.1c-0.1,0,-0.1,-0.1,-0.1,-0.1c-0.1,0,-0.1,0,-0.2,0H14.3c-0.1,0,-0.1,0,-0.2,0c-0.1,0,-0.1,0.1,-0.1,0.1s-0.1,0.1,-0.1,0.1c-0.1,0.1,-0.1,0.1,-0.1,0.1l-0.2,0.9c0,0.1,0,0.1,0,0.1C13.7,56.5,13.7,56.5,13.8,56.5L13.8,56.5zM18.6,56.5c0.1,0,0.1,0.1,0.1,0.1c0.1,0,0.1,0,0.2,0h3.6c0.1,0,0.1,0,0.2,0s0.1,-0.1,0.1,-0.1s0.1,-0.1,0.1,-0.1c0.1,-0.1,0.1,-0.1,0.1,-0.1l0.1,-0.9c0,-0.1,0,-0.1,-0.1,-0.1c0,-0.1,-0.1,-0.1,-0.1,-0.1c-0.1,0,-0.1,-0.1,-0.1,-0.1s-0.1,0,-0.2,0h-3.5c-0.1,0,-0.1,0,-0.2,0s-0.1,0.1,-0.1,0.1s-0.1,0.1,-0.1,0.1c-0.1,0.1,-0.1,0.1,-0.1,0.1l-0.2,0.9c0,0.1,0,0.1,0.1,0.1C18.5,56.5,18.6,56.5,18.6,56.5L18.6,56.5zM23.4,56.5c0.1,0,0.1,0.1,0.1,0.1s0.1,0,0.2,0h3.6c0.1,0,0.1,0,0.2,0c0.1,0,0.1,-0.1,0.1,-0.1c0.1,0,0.1,-0.1,0.1,-0.1c0.1,-0.1,0.1,-0.1,0.1,-0.1l0.1,-0.9c0,-0.1,0,-0.1,-0.1,-0.1c-0.1,-0.1,-0.1,-0.1,-0.1,-0.1c-0.1,0,-0.1,-0.1,-0.1,-0.1s-0.1,0,-0.2,0h-3.5c-0.1,0,-0.1,0,-0.2,0s-0.1,0.1,-0.1,0.1s-0.1,0.1,-0.1,0.1c-0.1,0.1,-0.1,0.1,-0.1,0.1l-0.1,0.9c0,0.1,0,0.1,0.1,0.1C23.3,56.5,23.4,56.5,23.4,56.5L23.4,56.5L23.4,56.5zM28.2,56.5c0.1,0,0.1,0.1,0.1,0.1s0.1,0,0.2,0h3.6c0.1,0,0.1,0,0.2,0c0.1,0,0.1,-0.1,0.1,-0.1s0.1,-0.1,0.1,-0.1c0.1,-0.1,0.1,-0.1,0.1,-0.1l0.1,-0.9c0,-0.1,0,-0.1,-0.1,-0.1c-0.1,-0.1,-0.1,-0.1,-0.1,-0.1c-0.1,0,-0.1,-0.1,-0.1,-0.1s-0.1,0,-0.2,0h-3.5c-0.1,0,-0.1,0,-0.2,0c-0.1,0,-0.1,0.1,-0.1,0.1c-0.1,0,-0.1,0.1,-0.1,0.1c-0.1,0.1,-0.1,0.1,-0.1,0.1l-0.1,0.9c0,0.1,0,0.1,0.1,0.1C28.2,56.5,28.2,56.5,28.2,56.5L28.2,56.5zM33.1,56.5c0.1,0,0.1,0.1,0.1,0.1s0.1,0,0.2,0h3.6c0.1,0,0.1,0,0.2,0c0.1,0,0.1,-0.1,0.1,-0.1c0.1,0,0.1,-0.1,0.1,-0.1c0.1,-0.1,0.1,-0.1,0.1,-0.1l0.1,-0.9c0,-0.1,0,-0.1,-0.1,-0.1c-0.1,-0.1,-0.1,-0.1,-0.1,-0.1c-0.1,0,-0.1,-0.1,-0.1,-0.1s-0.1,0,-0.2,0h-3.5c-0.1,0,-0.1,0,-0.2,0c-0.1,0,-0.1,0.1,-0.1,0.1c-0.1,0,-0.1,0.1,-0.1,0.1c-0.1,0.1,-0.1,0.1,-0.1,0.1l-0.1,0.9c0,0.1,0,0.1,0.1,0.1C33,56.5,33.1,56.5,33.1,56.5L33.1,56.5zM37.9,56.5c0.1,0,0.1,0.1,0.1,0.1s0.1,0,0.2,0H41.8c0.1,0,0.1,0,0.2,0c0.1,0,0.1,-0.1,0.1,-0.1c0.1,0,0.1,-0.1,0.1,-0.1c0.1,-0.1,0.1,-0.1,0.1,-0.1l0.1,-0.9c0,-0.1,0,-0.1,-0.1,-0.1c-0.1,-0.1,-0.1,-0.1,-0.1,-0.1c-0.1,0,-0.1,-0.1,-0.1,-0.1c-0.1,0,-0.1,0,-0.2,0h-3.5c-0.1,0,-0.1,0,-0.2,0c-0.1,0,-0.1,0.1,-0.1,0.1c-0.1,0,-0.1,0.1,-0.1,0.1c-0.1,0.1,-0.1,0.1,-0.1,0.1l-0.1,0.9c0,0.1,0,0.1,0.1,0.1C37.8,56.5,37.9,56.5,37.9,56.5L37.9,56.5zM42.7,56.5c0.1,0,0.1,0.1,0.1,0.1s0.1,0,0.2,0h3.6c0.1,0,0.1,0,0.2,0s0.1,-0.1,0.1,-0.1c0.1,0,0.1,-0.1,0.1,-0.1c0.1,-0.1,0.1,-0.1,0.1,-0.1v-0.9c0,-0.1,0,-0.1,-0.1,-0.1c-0.1,-0.1,-0.1,-0.1,-0.1,-0.1c-0.1,0,-0.1,-0.1,-0.1,-0.1s-0.1,0,-0.2,0h-3.5c-0.1,0,-0.1,0,-0.2,0s-0.1,0.1,-0.1,0.1c-0.1,0,-0.1,0.1,-0.1,0.1c-0.1,0.1,-0.1,0.1,-0.1,0.1l-0.1,0.9c0,0.1,0,0.1,0.1,0.1C42.7,56.5,42.7,56.5,42.7,56.5zM47.6,56.5c0.1,0,0.1,0.1,0.1,0.1s0.1,0,0.2,0h3.6c0.1,0,0.1,0,0.2,0s0.1,-0.1,0.1,-0.1c0.1,0,0.1,-0.1,0.1,-0.1c0.1,-0.1,0.1,-0.1,0.1,-0.1v-0.9c0,-0.1,0,-0.1,-0.1,-0.1c-0.1,-0.1,-0.1,-0.1,-0.1,-0.1c-0.1,0,-0.1,-0.1,-0.1,-0.1c-0.1,0,-0.1,0,-0.2,0h-3.5c-0.1,0,-0.1,0,-0.2,0s-0.1,0.1,-0.1,0.1s-0.1,0.1,-0.1,0.1c-0.1,0.1,-0.1,0.1,-0.1,0.1v0.9c0,0.1,0,0.1,0.1,0.1C47.5,56.5,47.6,56.5,47.6,56.5L47.6,56.5zM52.4,56.4c0.1,0.1,0.1,0.1,0.1,0.1s0.1,0.1,0.1,0.1s0.1,0,0.2,0h3.6c0.1,0,0.1,0,0.2,0s0.1,-0.1,0.1,-0.1c0.1,0,0.1,-0.1,0.1,-0.1c0.1,-0.1,0.1,-0.1,0.1,-0.1l-0.1,-0.9c0,-0.1,0,-0.1,-0.1,-0.1c-0.1,-0.1,-0.1,-0.1,-0.1,-0.1s-0.1,-0.1,-0.1,-0.1s-0.1,0,-0.2,0h-3.5c-0.1,0,-0.1,0,-0.2,0s-0.1,0.1,-0.1,0.1c-0.1,0,-0.1,0.1,-0.1,0.1c-0.1,0.1,-0.1,0.1,-0.1,0.1l0.1,0.9C52.3,56.4,52.3,56.4,52.4,56.4L52.4,56.4zM57.2,56.4c0.1,0.1,0.1,0.1,0.1,0.1c0.1,0,0.1,0.1,0.1,0.1s0.1,0,0.2,0h3.6c0.1,0,0.1,0,0.2,0s0.1,-0.1,0.1,-0.1l0.1,-0.1c0.1,-0.1,0.1,-0.1,0.1,-0.1l-0.1,-0.9c0,-0.1,0,-0.1,-0.1,-0.1c-0.1,-0.1,-0.1,-0.1,-0.1,-0.1s-0.1,-0.1,-0.1,-0.1c-0.1,0,-0.1,0,-0.2,0h-3.5c-0.1,0,-0.1,0,-0.2,0s-0.1,0.1,-0.1,0.1c-0.1,0,-0.1,0.1,-0.1,0.1c-0.1,0.1,-0.1,0.1,-0.1,0.1l0.1,0.9C57.1,56.4,57.1,56.4,57.2,56.4L57.2,56.4zM62,56.4c0.1,0.1,0.1,0.1,0.1,0.1c0.1,0,0.1,0.1,0.1,0.1c0.1,0,0.1,0,0.2,0h3.6c0.1,0,0.1,0,0.2,0s0.1,-0.1,0.1,-0.1c0.1,0,0.1,-0.1,0.1,-0.1c0.1,-0.1,0.1,-0.1,0.1,-0.1l-0.1,-0.9c0,-0.1,0,-0.1,-0.1,-0.1c-0.1,-0.1,-0.1,-0.1,-0.1,-0.1c-0.1,0,-0.1,-0.1,-0.1,-0.1s-0.1,0,-0.2,0H62.3c-0.1,0,-0.1,0,-0.2,0s-0.1,0.1,-0.1,0.1c-0.1,0,-0.1,0.1,-0.1,0.1c-0.1,0.1,-0.1,0.1,-0.1,0.1l0.1,0.9C61.9,56.4,61.9,56.4,62,56.4L62,56.4zM66.8,56.4c0.1,0.1,0.1,0.1,0.1,0.1s0.1,0.1,0.1,0.1s0.1,0,0.2,0h3.6c0.1,0,0.1,0,0.2,0s0.1,-0.1,0.1,-0.1l0.1,-0.1c0.1,-0.1,0.1,-0.1,0.1,-0.1l-0.1,-0.9c0,-0.1,-0.1,-0.1,-0.1,-0.1c-0.1,-0.1,-0.1,-0.1,-0.1,-0.1c-0.1,0,-0.1,-0.1,-0.1,-0.1s-0.1,0,-0.2,0h-3.5c-0.1,0,-0.1,0,-0.2,0s-0.1,0.1,-0.1,0.1l-0.1,0.1c-0.1,0.1,-0.1,0.1,-0.1,0.1l0.1,0.9C66.8,56.4,66.8,56.4,66.8,56.4L66.8,56.4zM71.7,56.4c0.1,0.1,0.1,0.1,0.1,0.1c0.1,0,0.1,0.1,0.1,0.1c0.1,0,0.1,0,0.2,0h3.6c0.1,0,0.1,0,0.2,0s0.1,-0.1,0.1,-0.1c0.1,0,0.1,-0.1,0.1,-0.1c0,-0.1,0.1,-0.1,0.1,-0.1l-0.2,-0.9c0,-0.1,-0.1,-0.1,-0.1,-0.1c-0.1,-0.1,-0.1,-0.1,-0.1,-0.1c-0.1,0,-0.1,-0.1,-0.1,-0.1c-0.1,0,-0.1,0,-0.2,0h-3.5c-0.1,0,-0.1,0,-0.2,0s-0.1,0.1,-0.1,0.1c-0.1,0,-0.1,0.1,-0.1,0.1c-0.1,0.1,-0.1,0.1,-0.1,0.1l0.1,0.9C71.6,56.4,71.7,56.4,71.7,56.4L71.7,56.4zM76.5,56.4c0.1,0.1,0.1,0.1,0.1,0.1c0.1,0,0.1,0.1,0.1,0.1s0.1,0,0.2,0H80.5c0.1,0,0.1,0,0.2,0s0.1,-0.1,0.1,-0.1c0.1,0,0.1,-0.1,0.1,-0.1c0,-0.1,0.1,-0.1,0.1,-0.1l-0.2,-0.9c0,-0.1,-0.1,-0.1,-0.1,-0.1c-0.1,-0.1,-0.1,-0.1,-0.1,-0.1c-0.1,0,-0.1,-0.1,-0.1,-0.1s-0.1,0,-0.2,0h-3.5c-0.1,0,-0.1,0,-0.2,0s-0.1,0.1,-0.1,0.1c-0.1,0,-0.1,0.1,-0.1,0.1c0,0.1,-0.1,0.1,-0.1,0.1l0.2,0.9C76.5,56.4,76.5,56.4,76.5,56.4L76.5,56.4zM81.3,56.4c0.1,0.1,0.1,0.1,0.1,0.1c0.1,0,0.1,0.1,0.1,0.1c0.1,0,0.1,0,0.2,0h3.6c0.1,0,0.1,0,0.2,0s0.1,-0.1,0.1,-0.1l0.1,-0.1c0,-0.1,0.1,-0.1,0,-0.1l-0.2,-0.9c0,-0.1,-0.1,-0.1,-0.1,-0.1c-0.1,-0.1,-0.1,-0.1,-0.1,-0.1c-0.1,0,-0.1,-0.1,-0.1,-0.1s-0.1,0,-0.2,0h-3.5c-0.1,0,-0.1,0,-0.2,0s-0.1,0.1,-0.1,0.1c-0.1,0,-0.1,0.1,-0.1,0.1c-0.1,0.1,-0.1,0.1,-0.1,0.1l0.2,0.9C81.3,56.4,81.3,56.4,81.3,56.4L81.3,56.4zM86.2,56.4c0.1,0.1,0.1,0.1,0.1,0.1c0.1,0,0.1,0.1,0.1,0.1s0.1,0,0.2,0h3.6c0.1,0,0.1,0,0.2,0c0.1,0,0.1,-0.1,0.1,-0.1c0.1,0,0.1,-0.1,0.1,-0.1c0,-0.1,0.1,-0.1,0,-0.1l-0.2,-0.9c0,-0.1,-0.1,-0.1,-0.1,-0.1c-0.1,-0.1,-0.1,-0.1,-0.1,-0.1c-0.1,0,-0.1,-0.1,-0.1,-0.1s-0.1,0,-0.2,0h-3.6c-0.1,0,-0.1,0,-0.2,0s-0.1,0.1,-0.1,0.1l-0.1,0.1c-0.1,0.1,-0.1,0.1,-0.1,0.1l0.2,0.9C86.1,56.4,86.2,56.4,86.2,56.4L86.2,56.4z"/>
    <polygon points="90.1,50.9 8.9,50.9 10,2.8 89.1,2.8"/>
    <path d="M60.5,71.2c0,-0.1,-0.1,-0.2,-0.2,-0.3c-0.1,-0.1,-0.2,-0.2,-0.3,-0.2c-0.2,-0.1,-0.3,-0.1,-0.5,-0.2c-0.2,-0.1,-0.4,-0.1,-0.6,-0.1H38.4c-0.2,0,-0.4,0.1,-0.6,0.1c-0.2,0.1,-0.4,0.1,-0.5,0.2c-0.2,0.1,-0.3,0.2,-0.4,0.2c-0.1,0.1,-0.2,0.2,-0.2,0.3l-0.3,3.5h24.2L60.5,71.2z"/>
    <path d="M58.9,70.5L58.9,70.5L58.9,70.5z"/>
    <path d="M60.6,74.8L60.6,74.8H36.4l-0.2,1.7c0,0.1,0.1,0.2,0.1,0.3c0.1,0.1,0.2,0.2,0.3,0.2c0.2,0.1,0.3,0.1,0.5,0.2s0.4,0.1,0.6,0.1h21.4c0.2,0,0.4,-0.1,0.6,-0.1c0.2,-0.1,0.4,-0.1,0.5,-0.2c0.2,-0.1,0.3,-0.2,0.3,-0.2c0.1,-0.1,0.1,-0.2,0.1,-0.3L60.6,74.8z"/>
</g>
<rect x="12.5" y="9.1" width="73.8" height="37.3" fill="none"/>
<path fill="none" d="M92.6,53.9c0,-0.1,-0.1,-0.1,-0.1,-0.2c-0.1,-0.1,-0.1,-0.1,-0.2,-0.1c-0.1,-0.1,-0.2,-0.1,-0.3,-0.1c-0.1,-0,-0.1,-0,-0.2,-0.1v-0.2h0.1c0.1,0,0.2,0,0.3,-0.1c0.1,0,0.2,-0.1,0.3,-0.2c0.1,-0.1,0.1,-0.2,0.2,-0.3c0.1,-0.2,0.1,-0.3,0.1,-0.4L91.3,0.9c-0.1,-0.1,-0.1,-0.2,-0.1,-0.3c0,-0.1,-0.1,-0.2,-0.2,-0.3c-0.1,-0.1,-0.2,-0.2,-0.3,-0.2c-0.1,0,-0.2,-0.1,-0.3,-0.1H8.6c-0.1,0,-0.3,0.1,-0.3,0.1c-0.1,0.1,-0.2,0.1,-0.3,0.2c-0.1,0.1,-0.1,0.2,-0.2,0.3c-0.1,0.1,-0.1,0.2,-0.1,0.3l-1.3,51.3c0,0.1,0,0.3,0.1,0.4c0,0.2,0.1,0.2,0.2,0.3c0.1,0.1,0.2,0.1,0.3,0.2c0.1,0,0.2,0.1,0.3,0.1v0.2c-0.1,0,-0.3,0,-0.4,0.1c-0.2,0.1,-0.2,0.1,-0.3,0.1c-0.1,0,-0.2,0.1,-0.2,0.1c-0.1,0.1,-0.1,0.1,-0.1,0.2L0,79.1c0,0.7,0.1,1.4,0.2,2.1c0,0.1,0,0.1,0.1,0.2c0,0,0.2,0.1,0.4,0.2c0.1,0,0.3,0.1,0.4,0.1l0,0h96.9v0c0.1,0,0.5,0,0.6,-0.1c0.1,-0.1,0.4,-0.3,0.4,-0.4c0.1,-0.7,0.1,-1.4,0.2,-2.1L92.6,53.9z"/>
<circle fill="none" cx="49.6" cy="0" r="0.1"/>
<circle fill="none" cx="70.4" cy="0" r="0.1"/>
<circle fill="none" cx="91.6" cy="14" r="0.1"/>
<circle fill="none" cx="92.3" cy="40.2" r="0.1"/>
<circle fill="none" cx="95.8" cy="66.5" r="0.1"/>
<circle fill="none" cx="74" cy="81.6" r="0.1"/>
<circle fill="none" cx="49.5" cy="81.6" r="0.1"/>
<circle fill="none" cx="25" cy="81.6" r="0.1"/>
<circle fill="none" cx="3.1" cy="66.5" r="0.1"/>
<circle fill="none" cx="6.8" cy="40.2" r="0.1"/>
<circle fill="none" cx="7.4" cy="14" r="0.1"/>
<circle fill="none" cx="28.8" cy="0" r="0.1"/>
</g></g><rect stroke="none" stroke-width="1" fill="#FFFFFF" x="0" y="0" width="40" height="20" transform="translate(132.2,30.1)"/><path stroke="#000000" fill="none" d="M92.3,40.2 C109.3,57.1 115.3,23.3 132.2 40.2"/><text font-family="OpenSansCondensedLight" font-size="14pt" fill="black" transform="translate(132.2,30.1)" text-anchor="middle"><tspan x="20" y="16.3">128</tspan></text><rect stroke-width="0" fill="none" width="73.8" height="37.3" transform="translate(12.5,9.1)"/><text font-family="OpenSansCondensedLight" font-size="14pt" fill="black" transform="translate(12.5,9.1)" text-anchor="middle"><tspan x="36.9" y="24.9"> </tspan></text><path stroke="#000000" fill="none" transform="translate(12.5,9.1)" d="M 0 0"/></g><g><path stroke="black" stroke-dasharray="none" d="M 719 284 573 315" fill="none"/><path fill="black" stroke="black" d="" transform="translate(719,284) scale(1,1) rotate(-192)"/><path fill="black" stroke="black" d="" transform="translate(573,315) scale(1,1) rotate(-12)"/><g><g label-idx="0" cursor="move" transform="translate(646, 299.5)"><rect fill="white" rx="3" ry="3" x="0" y="0" width="0" height="0"/><text text-anchor="middle" font-size="14pt" font-family="OpenSansCondensedLight" y="0.8em" display="none" xml:space="preserve" transform="translate(0,0)"/></g></g></g><g transform="translate(744,380)"><g><g>
<g stroke="#000000" stroke-dasharray="none" fill="#FFFFFF">
    <path d="M8,0h30.2c4.3,0,8,3.4,8,7.9v80.2c0,4.3,-3.5,7.9,-8,7.9H8C3.7,96,0,92.6,0,88.1V7.9C0,3.4,3.5,0,8,0z"/>
    <path d="M16.9,6.3c0.4,0,0.8,0.2,0.8,0.8c0,0.4,-0.4,0.8,-0.8,0.8c-0.6,0,-1,-0.4,-1,-0.8C15.9,6.5,16.3,6.3,16.9,6.3"/>
    <path d="M29.2,6.3c0.4,0,0.8,0.4,0.8,0.8c0,0.4,-0.4,0.8,-0.8,0.8h-8.8c-0.4,0,-0.8,-0.4,-0.8,-0.8s0.4,-0.8,0.8,-0.8L29.2,6.3"/>
    <path d="M23,85.3c2.1,0,3.7,1.6,3.7,3.6s-1.6,3.6,-3.7,3.6s-3.7,-1.6,-3.7,-3.6C19.4,86.9,21,85.3,23,85.3z"/>
    <path d="M3.1,81.8V13.3h39.8v68.5H3.1L3.1,81.8z"/>
</g>
<rect x="5.6" y="18.9" width="34.9" height="58.1" fill="none"/>
<circle fill="none" cx="23" cy="0" r="0.1"/>
<circle fill="none" cx="34.4" cy="0" r="0.1"/>
<circle fill="none" cx="46.1" cy="24.2" r="0.1"/>
<circle fill="none" cx="46.1" cy="48" r="0.1"/>
<circle fill="none" cx="46.1" cy="71.8" r="0.1"/>
<circle fill="none" cx="34.4" cy="96" r="0.1"/>
<circle fill="none" cx="23" cy="96" r="0.1"/>
<circle fill="none" cx="11.7" cy="96" r="0.1"/>
<circle fill="none" cx="0" cy="71.8" r="0.1"/>
<circle fill="none" cx="0" cy="48" r="0.1"/>
<circle fill="none" cx="0" cy="24.2" r="0.1"/>
<circle fill="none" cx="11.7" cy="0" r="0.1"/>
</g></g><rect stroke="none" stroke-width="0" fill="#FFFFFF" x="0" y="0" width="0" height="0" transform="translate(46,47.9)"/><path stroke="#000000" fill="none" d=""/><text font-family="OpenSansCondensedLight" font-size="14pt" fill="black" transform="translate(46,47.9)"/><rect stroke-width="0" fill="none" width="34.9" height="58.1" transform="translate(5.6,18.9)"/><text font-family="OpenSansCondensedLight" font-size="14pt" fill="black" transform="translate(5.6,18.9)" text-anchor="middle"><tspan x="17.4" y="35.3"> 130</tspan></text><path stroke="#000000" fill="none" transform="translate(5.6,18.9)" d="M 3.4 37 31.4 37"/></g><g><path stroke="black" stroke-dasharray="none" d="M 744 404 574 376" fill="none"/><path fill="black" stroke="black" d="" transform="translate(744,404) scale(1,1) rotate(-170.6)"/><path fill="black" stroke="black" d="" transform="translate(574,376) scale(1,1) rotate(9.4)"/><g><g label-idx="0" cursor="move" transform="translate(659, 390)"><rect fill="white" rx="3" ry="3" x="0" y="0" width="0" height="0"/><text text-anchor="middle" font-size="14pt" font-family="OpenSansCondensedLight" y="0.8em" display="none" xml:space="preserve" transform="translate(0,0)"/></g></g></g></g><defs/></svg>